<svg width="138" height="138" viewBox="0 0 138 138" fill="none" xmlns="http://www.w3.org/2000/svg">
<path d="M0 30C0 13.4315 13.4315 0 30 0H108C124.569 0 138 13.4315 138 30V108C138 124.569 124.569 138 108 138H30C13.4315 138 0 124.569 0 108V30Z" fill="#56C172"/>
<path d="M69.7951 39.3286C69.2851 39.1286 68.7151 39.1286 68.2051 39.3286L42.6351 49.5586L52.9351 53.6786L79.3051 43.1386L69.8051 39.3386L69.7951 39.3286ZM85.0651 45.4386L58.6951 55.9786L68.9951 60.0986L95.3651 49.5586L85.0651 45.4386ZM98.9951 52.7186L71.1451 63.8586V97.7986L98.9951 86.6586V52.7286V52.7186ZM66.8551 97.8086V63.8586L39.0051 52.7186V86.6586L66.8551 97.7986V97.8086ZM66.6151 35.3486C68.1451 34.7386 69.8551 34.7386 71.3851 35.3486L101.925 47.5686C102.735 47.8986 103.275 48.6786 103.275 49.5586V86.6686C103.275 88.4186 102.205 89.9986 100.585 90.6486L69.8051 102.959C69.2951 103.159 68.7251 103.159 68.2151 102.959L37.4251 90.6386C35.7951 89.9886 34.7251 88.4186 34.7251 86.6586V49.5586C34.7251 48.6786 35.2551 47.8986 36.0751 47.5686L66.6151 35.3486Z" fill="black"/>
</svg>
