<svg width="138" height="138" viewBox="0 0 138 138" fill="none" xmlns="http://www.w3.org/2000/svg">
<path d="M0 30C0 13.4315 13.4315 0 30 0H108C124.569 0 138 13.4315 138 30V108C138 124.569 124.569 138 108 138H30C13.4315 138 0 124.569 0 108V30Z" fill="#56C172"/>
<path d="M69.0001 56.2012C72.5545 56.2012 75.4231 53.3356 75.4231 49.8104C75.4231 46.2853 72.543 43.4197 69.0001 43.4197C65.4572 43.4197 62.5771 46.2853 62.5771 49.8104C62.5771 53.3356 65.4572 56.2012 69.0001 56.2012ZM86.1433 68.9941C89.6977 68.9941 92.5663 66.1285 92.5663 62.6034C92.5663 59.0782 89.6862 56.2126 86.1433 56.2126C82.6004 56.2126 79.7203 59.0782 79.7203 62.6034C79.7203 66.1285 82.6004 68.9941 86.1433 68.9941ZM58.2913 64.7298C58.2913 68.2664 55.4112 71.1206 51.8683 71.1206C48.3254 71.1206 45.4453 68.255 45.4453 64.7298C45.4453 61.2047 48.3254 58.3391 51.8683 58.3391C55.4112 58.3391 58.2913 61.2047 58.2913 64.7298ZM60.4285 90.3043C63.9828 90.3043 66.8515 87.4387 66.8515 83.9135C66.8515 80.3884 63.9714 77.5227 60.4285 77.5227C56.8856 77.5227 54.0055 80.3884 54.0055 83.9135C54.0055 87.4387 56.8856 90.3043 60.4285 90.3043Z" fill="black"/>
<path d="M103.275 68.9942C103.275 82.4239 95.2749 80.0131 87.9948 77.8184C83.6518 76.5107 79.5603 75.2712 77.5717 77.5228C74.9888 80.4339 75.5374 85.2781 76.0631 89.9746C76.8174 96.6837 77.5489 103.109 69.0001 103.109C50.074 103.097 34.7251 87.8253 34.7251 68.9942C34.7251 50.163 50.074 34.8911 69.0001 34.8911C87.9262 34.8911 103.275 50.163 103.275 68.9942ZM69.0001 98.8329C71.6173 98.8329 71.8002 98.1052 71.8116 98.0824C72.143 97.457 72.3373 96.1038 72.1087 93.3178C72.0516 92.6014 71.9487 91.7371 71.8459 90.7933C71.6287 88.8147 71.3659 86.5063 71.343 84.5617C71.2973 81.5483 71.6973 77.6934 74.3602 74.7027C75.9374 72.9287 77.9831 72.235 79.8118 72.0645C81.5375 71.9053 83.2861 72.1782 84.7833 72.508C86.2576 72.8377 87.7891 73.304 89.172 73.7133L89.2862 73.7475C90.772 74.1909 92.1092 74.6003 93.3663 74.8846C96.1664 75.51 97.2407 75.2371 97.6178 74.9869C97.7778 74.8732 98.9893 73.9408 98.9893 68.9942C98.9893 52.5169 85.5604 39.1554 69.0001 39.1554C52.4398 39.1554 39.0109 52.5169 39.0109 68.9942C39.0109 85.4714 52.4398 98.8329 69.0001 98.8329Z" fill="black"/>
</svg>
