<svg width="138" height="138" viewBox="0 0 138 138" fill="none" xmlns="http://www.w3.org/2000/svg">
<path d="M0 30C0 13.4315 13.4315 0 30 0H108C124.569 0 138 13.4315 138 30V108C138 124.569 124.569 138 108 138H30C13.4315 138 0 124.569 0 108V30Z" fill="#56C172"/>
<path d="M86.8601 63.9962H106.738C107.434 63.9962 108 64.5566 108 65.2456C108 65.5375 107.894 65.8177 107.705 66.0512L97.7721 77.8563C97.3239 78.3818 96.5335 78.4635 95.9908 78.0198C95.9318 77.9731 95.8729 77.9147 95.8257 77.8563L85.8927 66.0512C85.4445 65.5258 85.5152 64.7318 86.0579 64.2881C86.282 64.1012 86.5652 63.9962 86.8719 63.9962M31.2616 74.003H51.1393C51.8353 74.003 52.4015 73.4426 52.4015 72.7536C52.4015 72.4617 52.2954 72.1815 52.1066 71.9479L42.1737 60.1429C41.7254 59.6174 40.935 59.5357 40.3924 59.9794C40.3334 60.0261 40.2744 60.0845 40.2272 60.1429L30.2943 71.9596C29.846 72.4851 29.9168 73.2791 30.4594 73.7228C30.6836 73.9096 30.9667 74.0147 31.2734 74.0147" fill="black"/>
<path fill-rule="evenodd" clip-rule="evenodd" d="M68.9998 43.994C61.155 43.994 54.1358 47.532 49.5115 53.0901C48.6621 54.1877 47.0695 54.3862 45.9724 53.5455C44.8635 52.7048 44.663 51.1284 45.5124 50.0425C45.5477 49.9958 45.5831 49.9608 45.6185 49.914C56.2711 37.1164 75.3937 35.3182 88.3113 45.8739C93.9265 50.4628 97.6779 56.8967 98.9048 63.9961H93.7614C91.3548 52.3428 81.009 43.9823 68.9998 43.9823M44.2265 74.0029C47.0224 87.5478 60.3882 96.2703 74.0607 93.5029C79.7114 92.3586 84.8076 89.3344 88.4764 84.9206C89.3258 83.823 90.9184 83.6245 92.0155 84.4652C93.1244 85.3059 93.3249 86.8823 92.4755 87.9682C92.4401 88.0149 92.4048 88.0499 92.3694 88.0966C81.705 100.883 62.5824 102.681 49.6648 92.1251C44.0496 87.5362 40.2982 81.1023 39.0713 74.0029H44.2147H44.2265Z" fill="black"/>
</svg>
