<?xml version="1.0" encoding="UTF-8"?>
<svg id="Capa_4" data-name="Capa 4" xmlns="http://www.w3.org/2000/svg" viewBox="0 0 174.82 74.48">
  <defs>
    <style>
      .cls-1 {
        stroke: #ff85da;
        stroke-miterlimit: 10;
      }

      .cls-1, .cls-2 {
        fill: #ff85da;
      }
    </style>
  </defs>
  <path class="cls-1" d="M2.06,30.45c10.94-1.14,21.99-1.14,32.93.04,5.49.59,10.95,1.5,16.34,2.69,5.02,1.11,10.09,2.36,14.79,4.48,7.99,3.59,16.1,10.87,15.55,20.43-.22,3.82-2.07,7.72-5.12,10.09-3.22,2.51-7.47,2.78-11.16,1.18s-6.73-4.75-8.46-8.38c-2.2-4.59-2.32-9.99-1.8-14.95.51-4.87,1.67-9.73,3.02-14.43,1.25-4.33,2.82-8.57,5.02-12.51,4.04-7.23,10.18-13.01,18.5-14.6,3.66-.7,7.53-.5,11.04.79,3.7,1.37,6.41,4.09,8.25,7.53,2.22,4.16,3.54,8.69,6.5,12.45,2.68,3.39,6.29,6.02,10.21,7.82,9.33,4.28,19.64,3.96,29.59,2.52,2.72-.39,5.43-.87,8.14-1.35,1.9-.33,1.09-3.23-.8-2.89-10.88,1.91-22.43,3.91-33.13.06-4.31-1.55-8.31-4.05-11.3-7.55-3.31-3.88-4.52-8.93-7.03-13.29C98.85,3.08,90.48.19,82.19,1.36c-9,1.28-16.08,7.09-20.73,14.69-2.48,4.05-4.28,8.51-5.69,13.03-1.52,4.87-2.71,9.9-3.4,14.95-.74,5.44-.79,11.13,1.1,16.36,1.52,4.19,4.36,7.84,8.09,10.28,3.57,2.34,8.08,3.41,12.25,2.21,4.15-1.19,7.46-4.43,9.23-8.31,4.02-8.82-.11-18.5-7.17-24.41-8.34-6.98-19.88-9.34-30.32-11.17-11.51-2.02-23.25-2.78-34.92-2.2-2.87.14-5.73.37-8.58.67-1.9.2-1.92,3.2,0,3h0Z"/>
  <polygon class="cls-2" points="174.82 32.5 153.28 20.07 153.28 44.93 174.82 32.5"/>
</svg>