<svg width="120" height="149" viewBox="0 0 120 149" fill="none" xmlns="http://www.w3.org/2000/svg">
<path d="M62.8974 145.536C68.2366 143.257 73.1199 140.002 77.6126 135.705L114.335 100.089C116.224 98.2656 117.591 96.1821 118.568 93.9032C119.544 91.6243 120 89.15 120 86.5456C120 83.9412 119.479 81.4018 118.502 79.0578C117.526 76.7138 116.158 74.6954 114.4 72.9374C112.642 71.1794 110.624 69.812 108.28 68.8353C105.936 67.8587 103.462 67.3378 100.792 67.3378C99.0993 67.3378 97.4715 67.5331 95.8437 67.9889C94.216 68.4447 92.7184 69.0958 91.2859 69.9422V28.9222C91.2859 25.9922 90.7 23.3226 89.5931 20.9135C88.4862 18.5044 86.9886 16.551 85.1004 14.8581C83.2122 13.2303 80.9984 11.9281 78.459 11.0817C75.9197 10.2352 73.2501 9.71434 70.4503 9.71434H69.9946C69.9946 9.71434 69.669 9.71434 69.5388 9.84457C67.7808 6.84945 65.4368 4.44033 62.5068 2.68233C59.5768 0.924327 56.3212 0.0778809 52.8703 0.0778809C51.1774 0.0778809 49.4845 0.273215 47.8568 0.728993C46.229 1.18477 44.6663 1.83588 43.2339 2.68233C41.7363 1.83588 40.2387 1.18477 38.611 0.728993C36.9832 0.273215 35.3554 0.0778809 33.6625 0.0778809C31.2534 0.0778809 28.9745 0.53366 26.7607 1.38011C24.5469 2.22655 22.5936 3.46366 20.9007 4.96122C19.2078 6.45878 17.7754 8.2819 16.6685 10.3655C15.5616 12.449 14.8454 14.6628 14.5849 17.0719C12.5014 17.3324 10.548 17.9835 8.79002 18.9601C7.03201 19.9368 5.46934 21.1739 4.16712 22.6715C2.86489 24.169 1.82311 25.8619 1.10689 27.7502C0.390667 29.6384 0 31.6568 0 33.7404V103.279C0 107.446 0.52089 111.483 1.62778 115.39C2.73467 119.297 4.23223 122.943 6.25068 126.329C8.20402 129.714 10.6131 132.775 13.3478 135.574C16.0825 138.309 19.2078 140.718 22.5936 142.671C25.9794 144.625 29.6256 146.187 33.5323 147.294C37.439 148.401 41.4759 148.922 45.643 148.922C51.8937 148.922 57.6885 147.815 63.0277 145.536H62.8974Z" fill="black"/>
<path d="M97.0157 77.6254C96.039 78.1462 94.9973 78.7974 93.8904 79.7089L81.4541 90.1918L80.803 88.1734L81.4541 86.4805V28.9222C81.4541 27.5548 81.1937 26.3177 80.6728 25.2108C80.1519 24.0388 79.5008 23.0622 78.5892 22.1506C77.7428 21.3042 76.701 20.5879 75.529 20.067C74.357 19.5461 73.1199 19.2857 71.8176 19.2857C70.7108 19.2857 69.7992 19.4159 69.0179 19.6113C68.3016 19.8066 67.6505 20.1322 67.1296 20.5228C66.6087 20.9786 66.0879 21.4995 65.6321 22.0855C65.1763 22.7366 64.6554 23.4528 64.0694 24.2993L63.8741 24.6248C63.4834 25.2108 63.0927 25.7968 62.7672 26.3177C62.4416 26.8386 62.2463 27.4897 62.1161 28.2059V19.2857C62.1161 17.9184 61.8556 16.6813 61.3998 15.5744C60.879 14.4024 60.2279 13.4257 59.3814 12.5141C58.535 11.6677 57.4932 10.9515 56.3212 10.4957C55.1492 9.9748 53.9121 9.77947 52.6098 9.77947C51.5681 9.77947 50.6565 9.84458 49.9403 10.0399C49.224 10.1701 48.638 10.4306 48.1172 10.7561C47.5963 11.0817 47.1405 11.5375 46.6847 12.1235C46.2289 12.7095 45.7732 13.3606 45.2523 14.0768L44.536 15.0535C44.1454 15.7046 43.8198 16.2906 43.4943 16.8766C43.2338 17.4626 43.0385 18.1788 42.9083 18.895C42.9083 17.5928 42.5827 16.4208 42.0618 15.3139C41.5409 14.207 40.8247 13.2304 39.9783 12.3839C39.1318 11.5375 38.09 10.8864 36.9831 10.4306C35.8762 9.9748 34.6391 9.71436 33.3369 9.71436C32.4905 9.71436 31.644 9.84458 30.7976 10.0399C29.9511 10.2352 29.1698 10.6259 28.4536 11.0166C28.0629 11.277 27.542 11.7979 27.0211 12.5141C26.4351 13.2304 25.9793 14.0117 25.4585 14.793C24.9376 15.5744 24.612 16.4208 24.2864 17.2673C23.9609 18.1137 23.7656 18.7648 23.7656 19.2206V33.3497C23.7656 32.4382 23.5051 31.5266 23.1144 30.6802C22.7238 29.8337 22.2029 29.1175 21.5518 28.4664C20.9007 27.8153 20.1844 27.3595 19.338 26.9688C18.4915 26.5782 17.58 26.3828 16.6684 26.3828C15.6267 26.3828 14.7151 26.5782 13.8035 26.9688C12.9571 27.3595 12.1758 27.8804 11.5246 28.5315C10.8735 29.1826 10.3526 29.9639 9.96198 30.8104C9.57131 31.7219 9.37598 32.6335 9.37598 33.6102V103.149C9.37598 108.163 10.3526 112.785 12.2409 117.148C14.1291 121.51 16.7335 125.287 19.924 128.542C23.1796 131.798 26.956 134.337 31.3185 136.225C35.6809 138.114 40.3689 139.09 45.3174 139.09C50.2658 139.09 54.8236 138.179 59.0558 136.356C63.3532 134.533 67.1947 131.993 70.6456 128.607L107.238 93.0567C108.15 92.1452 108.801 91.1034 109.322 89.9314C109.843 88.7594 110.038 87.5223 110.038 86.2851C110.038 84.9178 109.778 83.6807 109.257 82.5738C108.736 81.4018 108.085 80.4251 107.173 79.5136C106.327 78.6671 105.285 77.9509 104.113 77.43C102.941 76.9091 101.704 76.6487 100.401 76.6487C98.969 76.6487 97.7319 76.9091 96.7552 77.3649L97.0157 77.6254Z" fill="#FFC83D"/>
<path d="M66.4131 66.621C66.8689 66.1653 67.1294 65.5793 67.1294 64.9282V20.6525C65.6969 21.5641 64.5249 22.7361 63.6785 24.1685C62.7669 25.6661 62.3111 27.2288 62.3111 28.9217V64.9282C62.3111 65.5793 62.5716 66.1653 63.0274 66.621C63.4831 67.0768 64.0691 67.3373 64.7202 67.3373C65.3714 67.3373 65.9574 67.0768 66.4131 66.621ZM23.8955 64.9282C23.8955 65.5793 24.156 66.1653 24.6117 66.621C25.0675 67.0768 25.6535 67.3373 26.3046 67.3373C26.9557 67.3373 27.5417 67.0768 27.9975 66.621C28.4533 66.1653 28.7137 65.5793 28.7137 64.9282V11.0812C27.2162 11.9276 26.0442 13.0996 25.1977 14.5321C24.3513 15.9645 23.8955 17.5923 23.8955 19.2852V64.863V64.9282ZM47.2053 66.621C47.6611 66.1653 47.9216 65.5793 47.9216 64.9282V11.0812C46.424 11.9276 45.252 13.0996 44.4055 14.5321C43.5591 15.9645 43.1033 17.5923 43.1033 19.2852V64.863C43.1033 65.5142 43.3638 66.1002 43.8195 66.5559C44.2753 67.0117 44.8613 67.2722 45.5124 67.2722C46.1635 67.2722 46.7496 67.0117 47.2053 66.5559V66.621ZM81.5189 86.5451H64.7202C61.074 86.5451 57.6231 87.2613 54.4327 88.6286C51.2422 89.996 48.4424 91.8842 46.0333 94.2933C43.6242 96.7024 41.8011 99.4371 40.3686 102.693C39.0013 105.883 38.2851 109.334 38.2851 112.98C38.2851 113.631 38.5455 114.217 39.0013 114.673C39.4571 115.129 40.0431 115.389 40.6942 115.389C41.3453 115.389 41.9313 115.129 42.3871 114.673C42.8429 114.217 43.1033 113.631 43.1033 112.98C43.1033 109.985 43.6893 107.185 44.7962 104.581C45.9031 101.976 47.4658 99.6975 49.4191 97.7442C51.3724 95.7909 53.6513 94.2282 56.2558 93.1213C58.8602 92.0144 61.66 91.4284 64.6551 91.4284H80.1516L81.5189 90.3215V86.6753V86.5451Z" fill="#D48C00"/>
</svg>
