<svg width="130" height="127" viewBox="0 0 130 127" fill="none" xmlns="http://www.w3.org/2000/svg">
<path d="M85.259 1.7337C82.2656 2.53551 79.4326 3.7115 76.8133 5.26166C74.1406 6.81183 71.7352 8.68272 69.4901 10.8743C67.2451 13.0659 65.3742 15.5248 63.7706 18.251C62.4342 15.5248 60.8306 13.1194 58.8528 10.9278C56.875 8.73617 54.6834 6.86528 52.2245 5.31512C49.7656 3.76495 47.1464 2.58896 44.3133 1.7337C41.4803 0.878437 38.5403 0.450806 35.5469 0.450806C31.2171 0.450806 27.1011 1.30607 23.3059 2.96314C19.5107 4.62021 16.1431 6.86528 13.31 9.75179C10.477 12.6383 8.17845 15.9525 6.52138 19.7477C4.86431 23.5429 4.00905 27.6589 4.00905 31.9886V43.802C4.00905 48.1317 4.86431 52.2477 6.52138 56.1498C8.17845 60.052 10.5839 63.473 13.6842 66.4664C11.5461 67.589 9.67516 68.9253 7.96464 70.529C6.30757 72.1326 4.86431 73.8966 3.68832 75.8743C2.51234 77.8521 1.60362 79.9368 0.962171 82.1819C0.320724 84.427 0 86.7255 0 89.1309V126.549H130V35.9442C130 32.6835 129.572 29.5298 128.717 26.5363C127.862 23.4895 126.686 20.6564 125.136 18.0906C123.586 15.4714 121.715 13.0659 119.576 10.9278C117.438 8.78962 115.033 6.91874 112.414 5.36857C109.794 3.81841 106.961 2.64242 103.968 1.78715C100.921 0.931891 97.7673 0.50426 94.56 0.50426C91.3528 0.50426 88.3059 0.931891 85.3125 1.7337H85.259Z" fill="black"/>
<path d="M62.967 89.1846C62.967 86.7257 62.4859 84.4272 61.5772 82.289C60.6685 80.1509 59.3856 78.2265 57.8354 76.6229C56.2852 75.0193 54.3609 73.7364 52.2227 72.8277C50.0846 71.9189 47.7861 71.4379 45.3272 71.4379H25.5492C23.0903 71.4379 20.7918 71.9189 18.6537 72.8277C16.5155 73.7364 14.6446 75.0193 13.041 76.6229C11.4374 78.2265 10.1545 80.0974 9.24576 82.2356C8.33704 84.3737 7.85596 86.6722 7.85596 89.1311V118.691H63.0204V89.1846H62.967Z" fill="#31D2F7"/>
<path d="M122.034 103.938C122.034 99.0201 122.034 94.1023 122.034 89.1846C122.034 86.7257 121.553 84.4272 120.644 82.289C119.735 80.1509 118.452 78.2265 116.849 76.6229C115.245 75.0193 113.374 73.7364 111.182 72.8277C109.044 71.9189 106.746 71.4379 104.287 71.4379H84.5624C82.1035 71.4379 79.805 71.9189 77.6668 72.8277C75.5287 73.7364 73.6578 75.0193 72.0542 76.6229C70.4506 78.2265 69.1677 80.0974 68.2589 82.2356C67.3502 84.3737 66.8691 86.6722 66.8691 89.1311V118.691H121.873C121.873 113.773 121.927 108.856 121.98 103.938H122.034Z" fill="#EE3F86"/>
<path d="M83.7628 10.5536C80.3952 11.9968 77.4552 13.9746 74.9964 16.487C72.5375 18.9993 70.5597 21.9393 69.1164 25.2534C67.6732 28.621 66.9248 32.149 66.9248 35.9442V75.3398C68.5819 75.3398 70.239 75.019 71.8426 74.3776C73.4462 73.7361 74.8894 72.8274 76.2258 71.7584C77.5621 70.6893 78.7381 69.4064 79.7003 68.0166C80.6625 66.6268 81.4108 65.0766 81.9454 63.5264H107.015C107.55 65.0766 108.298 66.5733 109.314 68.0166C110.329 69.4598 111.505 70.6893 112.842 71.7584C114.178 72.8274 115.621 73.6827 117.225 74.3776C118.829 75.0725 120.432 75.3398 122.143 75.3398V35.9442C122.143 32.149 121.394 28.5675 119.951 25.2534C118.508 21.9393 116.53 18.9993 114.018 16.487C111.505 13.9746 108.565 11.9968 105.251 10.5536C101.884 9.11031 98.3557 8.41541 94.5605 8.41541C90.7653 8.41541 87.1839 9.16376 83.8163 10.5536H83.7628Z" fill="#2B2B2B"/>
<path d="M98.4606 28.0863C97.0173 28.0863 95.5741 27.9259 94.0239 27.5517C92.4737 27.231 91.0305 26.6965 89.5872 26.0016C88.1974 25.3067 86.8611 24.5049 85.6851 23.5427C84.5091 22.5805 83.4935 21.458 82.6917 20.1751C82.264 21.6184 81.7295 23.0082 81.0881 24.398C80.4466 25.7878 79.6448 27.0707 78.7361 28.1932C77.8274 29.3157 76.7048 30.2244 75.4219 30.9193C74.139 31.6143 72.6423 31.935 70.9318 31.935V43.6414C70.9318 46.9021 71.5198 49.949 72.7492 52.8355C73.9787 55.722 75.6357 58.2343 77.7739 60.4259C79.9121 62.6175 82.4244 64.2746 85.2575 65.5041C88.144 66.7335 91.1908 67.375 94.505 67.375C97.8191 67.375 100.866 66.7335 103.753 65.5041C106.639 64.2746 109.098 62.5641 111.236 60.4259C113.374 58.2878 115.031 55.722 116.261 52.8355C117.49 49.949 118.078 46.9021 118.078 43.6414V31.935C116.1 31.935 114.123 31.6677 112.091 31.1866C110.06 30.6521 108.189 29.9037 106.425 28.9416C104.661 27.9794 103.058 26.6965 101.668 25.2532C100.278 23.7565 99.1555 22.046 98.4071 20.1216V28.0328L98.4606 28.0863ZM59.0116 35.944L57.0338 33.9662C57.0338 30.8124 56.6061 27.8725 55.8043 25.1998C55.0025 22.5271 53.7731 20.282 52.1695 18.3577C50.5658 16.4333 48.4811 14.9366 46.0223 13.8675C43.5634 12.7985 40.6769 12.2639 37.3093 12.2639H33.3537C30.0395 12.2639 27.0996 12.7985 24.6407 13.8675C22.1818 14.9366 20.0971 16.4333 18.44 18.3577C16.7829 20.282 15.5535 22.5805 14.7517 25.1998C13.9499 27.8725 13.5223 30.759 13.5223 33.9662L11.6514 35.944V43.8552C11.6514 47.1159 12.2928 50.1628 13.5223 53.0493C14.7517 55.9358 16.4622 58.3947 18.6004 60.5328C20.7385 62.671 23.2509 64.3815 26.0839 65.611C28.9704 66.8404 32.0173 67.4819 35.278 67.4819C38.5387 67.4819 41.5856 66.8404 44.4721 65.611C47.3586 64.3815 49.8175 62.671 51.9556 60.5328C54.0938 58.3947 55.8043 55.8823 57.0338 53.0493C58.2632 50.1628 58.9047 47.1159 58.9047 43.8552V35.944H59.0116Z" fill="#F7D7C4"/>
<path d="M26.1914 10.2863C23.3049 11.5157 20.846 13.2262 18.7078 15.3644C16.5697 17.5026 14.9126 20.0149 13.6832 22.848C12.4537 25.7345 11.8657 28.7814 11.8657 32.042V35.9976H15.7144C15.7144 34.4475 15.7144 32.9508 15.8213 31.6144C15.8748 30.2781 16.0351 28.9952 16.3024 27.7657C16.5697 26.5363 16.9438 25.3068 17.5318 24.0774C18.1198 22.848 18.8682 21.6185 19.8304 20.2822C19.8304 21.2978 20.0442 22.3134 20.4718 23.2221C20.8994 24.1309 21.4874 24.9861 22.1823 25.7345C22.8772 26.4294 23.7325 27.0174 24.6947 27.445C25.6568 27.8726 26.619 28.0865 27.6346 28.0865V20.496C27.6346 21.4582 27.9019 22.4203 28.383 23.329C28.8641 24.2378 29.3986 25.0396 30.147 25.7345C30.8953 26.4294 31.6971 26.9639 32.6059 27.3916C33.5146 27.8192 34.5302 28.033 35.5458 28.033H54.8427C55.0031 28.8348 55.11 29.6366 55.1634 30.4919C55.1634 31.2937 55.2169 32.149 55.2169 33.0042V35.9442H59.1725V31.9886C59.1725 28.7279 58.5845 25.681 57.355 22.7945C56.1256 19.908 54.4685 17.4491 52.3304 15.311C50.1922 13.1728 47.6799 11.4623 44.8468 10.2328C41.9603 9.00339 38.9134 8.36194 35.5993 8.36194C32.2851 8.36194 29.2383 9.00339 26.3517 10.2328L26.1914 10.2863Z" fill="#2B2B2B"/>
<path d="M96.4322 59.3032C97.2875 59.0894 98.1427 58.8221 98.998 58.4479C99.8533 58.0737 100.548 57.6461 101.19 57.1116C101.831 56.577 102.098 55.989 102.098 55.3476C102.098 54.813 101.938 54.3854 101.564 54.0112C101.19 53.637 100.762 53.4767 100.227 53.4767C99.9067 53.4767 99.586 53.5836 99.2118 53.8509C98.8376 54.1181 98.4635 54.3854 98.0358 54.6527C97.6082 54.9199 97.0737 55.2407 96.4857 55.4545C95.8977 55.7218 95.2028 55.8287 94.3475 55.8287C93.4922 55.8287 92.7973 55.7218 92.2094 55.4545C91.6214 55.1872 91.0868 54.9199 90.6592 54.6527C90.2315 54.3854 89.8039 54.0647 89.4832 53.8509C89.109 53.5836 88.7883 53.4767 88.4676 53.4767C87.933 53.4767 87.5054 53.637 87.1312 54.0112C86.757 54.3854 86.5967 54.813 86.5967 55.3476C86.5967 55.989 86.9174 56.577 87.5054 57.1116C88.0934 57.6461 88.8418 58.0737 89.697 58.4479C90.5523 58.8221 91.4075 59.0894 92.2628 59.3032C93.1181 59.517 93.813 59.6239 94.3475 59.6239C94.882 59.6239 95.5769 59.517 96.4322 59.3032Z" fill="#BB9167"/>
<path d="M97.2856 46.6357C98.0874 45.8339 98.4616 44.9252 98.4616 43.8561H90.5504C90.5504 44.9252 90.9246 45.8339 91.7264 46.6357C92.5282 47.4375 93.437 47.8117 94.506 47.8117C95.5751 47.8117 96.4838 47.4375 97.2856 46.6357ZM31.4838 43.8561C31.4838 44.9252 31.858 45.8339 32.6598 46.6357C33.4616 47.4375 34.3703 47.8117 35.4394 47.8117C36.5085 47.8117 37.4172 47.4375 38.219 46.6357C39.0208 45.8339 39.395 44.9252 39.395 43.8561H31.4838ZM37.043 59.3043C37.8983 59.0905 38.7536 58.8232 39.6088 58.449C40.4641 58.0748 41.159 57.6472 41.8004 57.1127C42.4419 56.5781 42.7092 55.9901 42.7092 55.3487C42.7092 54.8141 42.5488 54.3865 42.1746 54.0123C41.8004 53.6382 41.3728 53.4778 40.8383 53.4778C40.5176 53.4778 40.1968 53.5847 39.8761 53.852C39.5554 54.1192 39.1812 54.3865 38.7001 54.6538C38.219 54.9211 37.7379 55.2418 37.15 55.4556C36.562 55.6694 35.8136 55.8298 34.9583 55.8298C34.1031 55.8298 33.4082 55.7229 32.8202 55.4556C32.2322 55.1883 31.6977 54.9211 31.27 54.6538C30.8424 54.3865 30.4148 54.0658 30.094 53.852C29.7199 53.5847 29.3991 53.4778 29.0784 53.4778C28.5439 53.4778 28.1162 53.6382 27.7421 54.0123C27.3679 54.3865 27.2075 54.8141 27.2075 55.3487C27.2075 55.9901 27.5282 56.5781 28.1162 57.1127C28.7042 57.6472 29.4526 58.0748 30.3078 58.449C31.1631 58.8232 32.0184 59.0905 32.8736 59.3043C33.7289 59.5181 34.4238 59.625 34.9583 59.625C35.4929 59.625 36.1878 59.5181 37.043 59.3043Z" fill="#BB9167"/>
<path d="M44.4733 33.2176C43.7249 34.0194 43.2973 34.9281 43.2973 35.9972V39.9528C43.2973 41.0219 43.6715 41.9306 44.4733 42.7324C45.2216 43.5342 46.1303 43.9084 47.1994 43.9084C48.2685 43.9084 49.2307 43.5342 49.979 42.7324C50.7274 41.9306 51.155 41.0219 51.155 39.9528V35.9972C51.155 34.8747 50.7808 33.966 49.979 33.2176C49.1772 32.4692 48.2685 32.0416 47.1994 32.0416C46.1303 32.0416 45.2216 32.4158 44.4733 33.2176ZM20.7932 33.1641C20.0448 33.9125 19.6172 34.8747 19.6172 35.9438V39.8993C19.6172 41.0219 19.9914 41.9306 20.7932 42.679C21.595 43.4273 22.5037 43.8549 23.5728 43.8549C24.6419 43.8549 25.604 43.4808 26.3524 42.679C27.1007 41.8771 27.5284 40.9684 27.5284 39.8993V35.9438C27.5284 34.8212 27.1542 33.9125 26.3524 33.1641C25.5506 32.4158 24.6419 31.9882 23.5728 31.9882C22.5037 31.9882 21.5415 32.3623 20.7932 33.1641ZM110.222 35.9438C110.222 34.8747 109.847 33.966 109.046 33.1641C108.244 32.3623 107.389 31.9882 106.319 31.9882C105.25 31.9882 104.288 32.3623 103.54 33.1641C102.792 33.966 102.364 34.8747 102.364 35.9438V39.8993C102.364 41.0219 102.738 41.9306 103.54 42.679C104.342 43.4273 105.25 43.8549 106.319 43.8549C107.389 43.8549 108.297 43.4808 109.046 42.679C109.794 41.8771 110.222 40.9684 110.222 39.8993V35.9438ZM79.9132 33.2176C79.1114 34.0194 78.7372 34.9281 78.7372 35.9972V39.9528C78.7372 41.0219 79.1114 41.9306 79.9132 42.7324C80.715 43.5342 81.6238 43.9084 82.6928 43.9084C83.7619 43.9084 84.7241 43.5342 85.4725 42.7324C86.2208 41.9306 86.6484 41.0219 86.6484 39.9528V35.9972C86.6484 34.8747 86.2743 33.966 85.4725 33.2176C84.6706 32.4692 83.7619 32.0416 82.6928 32.0416C81.6238 32.0416 80.715 32.4158 79.9132 33.2176Z" fill="black"/>
<path d="M90.5493 87.1536V79.2424C90.5493 75.4472 89.8009 71.8658 88.3577 68.5516C86.9144 65.2375 84.9366 62.2975 82.4243 59.7852C79.912 57.2728 76.972 55.295 73.6578 53.8518C70.2902 52.4085 66.7623 51.7136 62.9671 51.7136C59.1718 51.7136 55.5904 52.462 52.2763 53.8518C48.9087 55.295 46.0222 57.2728 43.5098 59.7852C40.9975 62.2975 39.0197 65.2375 37.5764 68.5516C36.1332 71.9192 35.3848 75.4472 35.3848 79.2424V87.1536C35.3848 90.147 35.8659 93.087 36.8281 95.92C33.8881 98.1651 31.5896 100.891 29.9325 104.205C28.3289 107.52 27.4736 110.994 27.4736 114.736V126.549H98.407V114.736C98.407 110.994 97.6052 107.52 95.9481 104.205C94.3445 100.891 92.046 98.1651 89.0526 95.92C90.0148 93.087 90.4958 90.147 90.4958 87.1536H90.5493Z" fill="black"/>
<path d="M51.1549 99.0195C49.0168 99.0195 46.9855 99.4472 45.0612 100.249C43.1368 101.051 41.4798 102.173 40.0365 103.617C38.5932 105.06 37.4707 106.717 36.6689 108.641C35.8671 110.566 35.4395 112.597 35.4395 114.735V118.691H90.6039V114.735C90.6039 112.597 90.1763 110.566 89.3745 108.641C88.5727 106.717 87.4502 105.06 86.0069 103.617C84.5636 102.173 82.9066 101.051 80.9822 100.249C79.0579 99.4472 77.0266 99.0195 74.8885 99.0195H51.2084H51.1549Z" fill="#F7630C"/>
<path d="M49.1783 69.4594L43.2983 79.3483V87.2061C43.2983 89.9322 43.8329 92.498 44.8485 94.9034C45.8641 97.3089 47.2539 99.3936 49.0714 101.158C50.8353 102.922 52.9201 104.311 55.3255 105.38C57.6775 106.396 60.2432 106.931 63.0229 106.931C65.8025 106.931 68.3148 106.396 70.7202 105.38C73.0722 104.311 75.1569 102.922 76.9743 101.158C78.7383 99.3936 80.1816 97.2554 81.1972 94.9034C82.2128 92.498 82.7474 89.9857 82.7474 87.2595V79.4018L76.8674 69.5128H49.2317L49.1783 69.4594Z" fill="#F7D7C4"/>
<path d="M59.015 87.153C59.015 88.2755 59.3891 89.1842 60.1909 89.9326C60.9928 90.6809 61.9015 91.1086 62.9705 91.1086C64.0396 91.1086 65.0018 90.7344 65.7502 89.9326C66.4985 89.1308 66.9261 88.222 66.9261 87.153H59.015ZM51.7452 93.6743C51.3176 94.102 51.1572 94.5296 51.1572 95.0641C51.1572 95.3849 51.2641 95.7056 51.4245 95.9729C52.547 98.111 54.1506 99.7681 56.2354 101.051C58.3201 102.334 60.5651 102.922 62.9705 102.922C63.5051 102.922 63.9862 102.708 64.3604 102.334C64.7345 101.96 64.9483 101.479 64.9483 100.944C64.9483 100.41 64.7345 99.9285 64.3604 99.5543C63.9862 99.1801 63.5051 98.9663 62.9705 98.9663C61.1531 98.9663 59.5495 98.5387 58.2131 97.6299C56.8768 96.7747 55.7543 95.5452 54.8456 94.0485C54.6852 93.7812 54.4179 93.514 54.1506 93.3002C53.8834 93.0864 53.5092 92.9794 53.1885 92.9794C52.6539 92.9794 52.1728 93.1933 51.7452 93.5674V93.6743Z" fill="#BB9167"/>
<path d="M48.3762 76.5693C47.5744 77.3711 47.2002 78.2798 47.2002 79.3489V83.251C47.2002 84.3201 47.5744 85.2288 48.3762 86.0306C49.178 86.8324 50.0867 87.2066 51.1558 87.2066C52.2249 87.2066 53.187 86.8324 53.9354 86.0306C54.6837 85.2288 55.1114 84.3201 55.1114 83.251V79.3489C55.1114 78.2264 54.7372 77.3176 53.9354 76.5693C53.1336 75.8209 52.2249 75.3933 51.1558 75.3933C50.0867 75.3933 49.178 75.7675 48.3762 76.5693ZM72.0028 76.5158C71.2545 77.2642 70.8268 78.2264 70.8268 79.2954V83.1976C70.8268 84.3201 71.201 85.2288 72.0028 85.9772C72.8046 86.7255 73.7134 87.1532 74.7824 87.1532C75.8515 87.1532 76.7602 86.779 77.5086 85.9772C78.2569 85.1754 78.6846 84.2667 78.6846 83.1976V79.2954C78.6846 78.2264 78.3104 77.3176 77.5086 76.5158C76.7602 75.714 75.8515 75.3398 74.7824 75.3398C73.7134 75.3398 72.7512 75.714 72.0028 76.5158Z" fill="black"/>
<path d="M55.3255 61.1749C52.9735 62.1906 50.8888 63.6338 49.0714 65.3978C47.2539 67.1618 45.8641 69.2465 44.8485 71.6519C43.8329 74.0573 43.2983 76.6231 43.2983 79.3493L51.1561 71.4381H74.8362L82.6939 79.3493C82.6939 76.6231 82.1594 74.1108 81.1437 71.7054C80.1281 69.2999 78.7383 67.2152 76.9209 65.4513C75.1034 63.6873 73.0722 62.244 70.6668 61.2284C68.3148 60.1593 65.749 59.6782 62.9694 59.6782C60.1898 59.6782 57.6775 60.2128 55.272 61.2284L55.3255 61.1749Z" fill="#2B2B2B"/>
</svg>
