<svg width="138" height="138" viewBox="0 0 138 138" fill="none" xmlns="http://www.w3.org/2000/svg">
<rect width="138" height="137.98" rx="30" fill="#56C172"/>
<path fill-rule="evenodd" clip-rule="evenodd" d="M80.24 101.23C88.52 101.23 95.24 94.52 95.24 86.23C95.24 77.94 88.53 71.23 80.24 71.23C71.95 71.23 65.24 77.94 65.24 86.23C65.24 94.52 71.95 101.23 80.24 101.23ZM98.98 86.24C98.98 96.59 90.59 104.98 80.24 104.98C69.89 104.98 61.5 96.59 61.5 86.24C61.5 75.89 69.89 67.5 80.24 67.5C90.59 67.5 98.98 75.89 98.98 86.24Z" fill="black"/>
<path d="M74.3799 89.7801C74.5599 92.0101 76.3199 93.7501 79.4899 93.9601V95.6101H80.8999V93.9501C84.1799 93.7201 86.0999 91.9701 86.0999 89.4301C86.0999 87.1101 84.6399 85.9201 82.0099 85.3101L80.8999 85.0501V80.5501C82.3099 80.7101 83.1999 81.4801 83.4199 82.5401H85.8899C85.7099 80.3801 83.8699 78.7001 80.9099 78.5201V76.8701H79.4999V78.5601C76.6999 78.8301 74.7999 80.5201 74.7999 82.9001C74.7999 85.0101 76.2199 86.3501 78.5799 86.9001L79.5099 87.1301V91.9001C78.0699 91.6801 77.1099 90.8901 76.8999 89.7901H74.3999L74.3799 89.7801ZM79.4799 84.7001C78.0999 84.3801 77.3499 83.7301 77.3499 82.7401C77.3499 81.6401 78.1599 80.8101 79.4899 80.5701V84.6901H79.4799V84.7001ZM81.0999 87.5001C82.7799 87.8901 83.5599 88.5201 83.5599 89.6301C83.5599 90.9001 82.5999 91.7701 80.8999 91.9301V87.4501L81.0999 87.4901V87.5001Z" fill="black"/>
<path d="M42.75 45C40.68 45 39 46.68 39 48.75V78.74C39 80.81 40.68 82.49 42.75 82.49H58.06C58.28 81.2 58.6 79.95 59.03 78.74H50.25C50.25 74.6 46.89 71.24 42.75 71.24V56.24C46.89 56.24 50.25 52.88 50.25 48.74H87.74C87.74 52.88 91.1 56.24 95.24 56.24V69.47C96.66 70.74 97.93 72.2 98.99 73.8V48.75C98.99 46.68 97.31 45 95.24 45H42.75Z" fill="black"/>
<path d="M76.48 64.0598V63.7498C76.48 59.6098 73.13 56.2498 68.99 56.2598C64.85 56.2598 61.49 59.6198 61.5 63.7598C61.5 66.2298 62.72 68.5398 64.75 69.9398C67.99 66.8598 72.08 64.8098 76.48 64.0698" fill="black"/>
</svg>
