<svg width="150" height="151" viewBox="0 0 150 151" fill="none" xmlns="http://www.w3.org/2000/svg">
<path d="M94.8239 147.795C101.188 146.013 107.17 143.468 112.77 140.222C118.307 136.976 123.398 133.031 127.98 128.449C132.563 123.867 136.445 118.839 139.754 113.239C143.063 107.638 145.545 101.72 147.327 95.3557C149.109 88.9917 150 82.3095 150 75.4364C150 67.0995 148.664 59.0172 145.927 51.1894C148.6 45.5255 150 39.5433 150 33.2429V14.5327H135.935V0.404541H117.225C110.925 0.404541 104.943 1.74099 99.2787 4.47751C91.3873 1.80463 83.305 0.404541 75.0318 0.404541C68.095 0.404541 61.4764 1.2955 55.1124 3.07743C48.7484 4.85936 42.7662 7.40496 37.2295 10.6506C31.6292 13.8963 26.6016 17.842 22.0195 22.4241C17.4374 27.0062 13.5554 32.0337 10.2461 37.6341C6.93678 43.2344 4.45481 49.1529 2.67289 55.5806C0.890963 61.9446 0 68.6269 0 75.5C0 82.3731 0.890963 88.9917 2.67289 95.4194C4.45481 101.783 7.00042 107.766 10.2461 113.366C13.4917 118.966 17.4374 123.994 22.0195 128.576C26.6016 133.158 31.6292 137.04 37.2295 140.349C42.7662 143.595 48.7484 146.141 55.1124 147.923C61.4764 149.704 68.1587 150.595 75.0318 150.595C81.905 150.595 88.5235 149.704 94.9512 147.923L94.8239 147.795Z" fill="black"/>
<path d="M57.4678 12.1781C51.8675 13.7691 46.649 15.9328 41.7487 18.7966C36.8484 21.6604 32.4572 25.0334 28.4479 29.0427C24.4385 32.9884 21.0656 37.4432 18.2018 42.3435C15.338 47.2438 13.1742 52.4623 11.5832 58.0627C9.9922 63.663 9.22852 69.4543 9.22852 75.5001C9.22852 81.5459 9.9922 87.3372 11.5832 92.9375C13.1742 98.5378 15.338 103.756 18.2018 108.657C21.0656 113.557 24.4385 117.948 28.4479 121.957C32.4572 125.967 36.8484 129.34 41.7487 132.204C46.649 135.067 51.8675 137.231 57.4678 138.822C63.0681 140.413 68.8594 141.177 74.9052 141.177C80.951 141.177 86.7423 140.413 92.3426 138.822C97.943 137.231 103.161 135.067 108.062 132.204C112.962 129.34 117.353 125.967 121.363 121.957C125.372 118.012 128.745 113.557 131.609 108.657C134.472 103.756 136.636 98.5378 138.227 92.9375C139.818 87.3372 140.582 81.5459 140.582 75.5001C140.582 69.4543 139.818 63.663 138.227 58.0627C136.636 52.4623 134.472 47.2438 131.609 42.3435C128.745 37.4432 125.372 33.052 121.363 29.0427C117.353 25.0334 112.962 21.6604 108.062 18.7966C103.161 15.9328 97.943 13.7691 92.3426 12.1781C86.7423 10.587 80.951 9.82336 74.9052 9.82336C68.8594 9.82336 63.0681 10.587 57.4678 12.1781Z" fill="#F03A17"/>
<path d="M62.1139 105.665C58.1046 103.947 54.6044 101.592 51.6769 98.6647C48.7495 95.7373 46.3948 92.2371 44.6765 88.2277C42.9582 84.2184 42.0673 79.9545 42.0673 75.436C42.0673 70.9176 42.8946 66.6537 44.6765 62.708C46.3948 58.6987 48.7495 55.2621 51.7406 52.271C54.7317 49.2799 58.2319 46.9252 62.1776 45.2069C66.1233 43.4887 70.3871 42.5977 74.9056 42.5977C79.4241 42.5977 83.688 43.4887 87.6336 45.2069C91.5793 46.9252 95.0796 49.2799 98.0706 52.271C101.062 55.2621 103.416 58.6987 105.135 62.708C106.853 66.6537 107.744 70.9176 107.744 75.436C107.744 79.9545 106.853 84.2184 105.135 88.1641C103.416 92.1734 101.062 95.61 98.0706 98.6011C95.0796 101.592 91.5793 103.947 87.6336 105.665C83.6243 107.383 79.4241 108.274 74.9056 108.274C70.3871 108.274 66.1233 107.447 62.1139 105.665ZM62.4321 30.1878C58.4228 31.2697 54.668 32.8607 51.2314 34.8972C47.7312 36.9337 44.6129 39.4157 41.7491 42.2158C38.8852 45.0797 36.4669 48.2617 34.4304 51.6982C32.3939 55.1985 30.8029 58.8896 29.7211 62.8989C28.6392 66.9082 28.0664 71.0449 28.0664 75.3724C28.0664 79.6999 28.6392 83.8365 29.7211 87.8459C30.8029 91.8552 32.3939 95.61 34.4304 99.0466C36.4669 102.547 38.9489 105.665 41.7491 108.529C44.6129 111.393 47.7312 113.811 51.2314 115.848C54.7317 117.884 58.4228 119.475 62.4321 120.557C66.4415 121.639 70.5781 122.212 74.9056 122.212C79.2331 122.212 83.3698 121.639 87.3791 120.557C91.3884 119.475 95.1432 117.884 98.5798 115.848C102.08 113.811 105.198 111.329 108.062 108.529C110.926 105.665 113.344 102.483 115.381 99.0466C117.417 95.5463 119.008 91.8552 120.09 87.8459C121.172 83.8365 121.745 79.6999 121.745 75.3724C121.745 71.0449 121.172 66.9082 120.09 62.8989C119.008 58.8896 117.417 55.1348 115.381 51.6982C113.344 48.198 110.862 45.0797 108.062 42.2158C105.198 39.352 102.016 36.9337 98.5798 34.8972C95.0796 32.8607 91.3884 31.2697 87.3791 30.1878C83.3698 29.106 79.2331 28.5332 74.9056 28.5332C70.5781 28.5332 66.4415 29.106 62.4321 30.1878ZM69.4325 62.4534C67.7143 63.2171 66.2505 64.2354 64.9777 65.5082C63.7049 66.781 62.6867 68.3083 61.923 69.963C61.1593 71.6813 60.8411 73.4632 60.8411 75.436C60.8411 77.4089 61.223 79.1908 61.923 80.9091C62.6867 82.6274 63.7049 84.0911 64.9777 85.3639C66.2505 86.6367 67.7779 87.655 69.4325 88.4186C71.0872 89.1823 72.9328 89.5005 74.9056 89.5005C76.8785 89.5005 78.6604 89.1187 80.3787 88.4186C82.0969 87.7186 83.5607 86.7004 84.8335 85.3639C86.1063 84.0911 87.1245 82.5637 87.8246 80.9091C88.5882 79.1908 88.9064 77.4089 88.9064 75.436C88.9064 73.4632 88.5246 71.6813 87.8246 69.963C87.0609 68.2447 86.1063 66.781 84.8335 65.5082C83.5607 64.2354 82.0969 63.2171 80.3787 62.4534C78.6604 61.6898 76.8785 61.3716 74.9056 61.3716C72.9328 61.3716 71.1508 61.7534 69.4325 62.4534Z" fill="white"/>
<path d="M120.471 63.4721C124.481 61.7538 127.917 59.3991 130.908 56.408C133.899 53.4169 136.254 49.9167 137.972 45.971C139.691 41.9617 140.582 37.7614 140.582 33.243V23.8242H126.517V9.82336H117.162C112.644 9.82336 108.38 10.7143 104.434 12.369C100.425 14.0873 96.9881 16.4419 93.997 19.433C91.006 22.4241 88.6513 25.9243 86.933 29.87C85.2147 33.8794 84.3237 38.0796 84.3237 42.5981V66.0177H107.743C112.262 66.0177 116.526 65.1904 120.471 63.4721Z" fill="#31D2F7"/>
<path d="M113.789 29.8693L71.5959 72.0628C70.7049 72.9538 70.1958 74.0993 70.1958 75.3721C70.1958 76.6449 70.6413 77.7904 71.5959 78.6814C72.5505 79.5723 73.6324 80.0815 74.9052 80.0815C76.178 80.0815 77.3235 79.636 78.2145 78.6814L120.344 36.4879C121.299 35.5333 121.808 34.4514 121.808 33.1786C121.808 31.9058 121.363 30.8239 120.408 29.8693C119.453 28.9147 118.371 28.4692 117.099 28.4692C115.826 28.4692 114.68 28.9147 113.789 29.8693Z" fill="#0078D7"/>
</svg>
