<svg width="150" height="127" viewBox="0 0 150 127" fill="none" xmlns="http://www.w3.org/2000/svg">
<path d="M108.634 124.976C112.707 123.704 116.398 121.922 119.835 119.631C123.271 117.34 126.262 114.539 128.935 111.23C131.608 107.921 133.708 104.23 135.299 100.22C138.481 97.3566 140.963 93.9836 142.681 90.0379C144.4 86.0922 145.291 82.0193 145.291 77.6917C145.291 76.228 145.163 74.8279 144.972 73.3642C144.782 71.9005 144.463 70.5004 144.081 69.1003C145.991 66.6183 147.454 63.8818 148.473 60.9543C149.491 58.0269 150 54.9722 150 51.7902C150 49.3718 149.682 47.0808 149.109 44.7897C148.473 42.4987 147.645 40.3349 146.5 38.2984C145.354 36.2619 144.018 34.3527 142.363 32.6345C140.709 30.9162 138.927 29.3888 136.89 28.116C135.235 24.6158 133.135 21.4338 130.653 18.57C128.171 15.7062 125.308 13.2878 122.189 11.2513C119.007 9.21485 115.634 7.68748 112.007 6.6056C108.379 5.52372 104.561 4.95095 100.742 4.95095C98.8333 4.95095 96.9241 5.07823 95.0785 5.3328C93.2329 5.58736 91.3874 6.03284 89.5418 6.54196C86.7416 4.44183 83.7505 2.85083 80.4412 1.83258C77.1319 0.750699 73.759 0.241577 70.3224 0.241577C66.0586 0.241577 61.9219 1.0689 57.9762 2.65991C53.9669 4.31455 50.4667 6.6056 47.412 9.59669C43.4663 9.59669 39.7751 10.2331 36.1476 11.4423C32.5838 12.6514 29.3381 14.4333 26.4107 16.7244C23.5469 19.0154 21.0649 21.752 19.0284 24.934C16.9919 28.116 15.5919 31.6798 14.7645 35.5619C12.5371 36.5801 10.5006 37.9166 8.71871 39.5712C6.87314 41.2259 5.34578 43.0078 4.00933 45.0443C2.67289 47.0808 1.71829 49.2445 1.01824 51.5992C0.318201 53.9539 0 56.3086 0 58.7906V72.8551C0 77.0553 0.827323 80.9374 2.41833 84.6922C4.00933 88.3833 6.23674 91.6289 8.97327 94.3655C11.7098 97.102 14.9555 99.3294 18.6466 100.92C22.3377 102.511 26.2834 103.339 30.4837 103.339H46.0119C48.4938 105.884 51.294 107.984 54.476 109.512C57.658 111.103 61.031 112.057 64.5312 112.503C66.504 114.794 68.7314 116.767 71.1498 118.549C73.5681 120.331 76.1137 121.794 78.7866 123.004C81.4595 124.213 84.2597 125.167 87.1871 125.804C90.1146 126.44 93.042 126.758 96.0331 126.758C100.361 126.758 104.561 126.122 108.634 124.849V124.976Z" fill="black"/>
<path d="M63.2565 84.6923C63.2565 89.2107 64.0838 93.4746 65.8658 97.4203C67.584 101.43 69.9387 104.866 72.9298 107.857C75.9209 110.848 79.4211 113.203 83.3668 114.921C87.3125 116.64 91.5764 117.531 96.0949 117.531C100.613 117.531 104.877 116.64 108.823 114.921C112.769 113.203 116.269 110.848 119.26 107.921C122.251 104.993 124.606 101.493 126.324 97.4839C128.042 93.4746 128.933 89.2107 128.933 84.6923H63.1929H63.2565Z" fill="#E84757"/>
<path d="M139.819 46.4442C139.31 44.7259 138.546 43.0712 137.591 41.6075C136.637 40.1438 135.428 38.8073 134.091 37.5982C132.755 36.389 131.227 35.4344 129.509 34.6707C128.427 31.616 126.9 28.8795 124.991 26.3339C123.081 23.8519 120.854 21.6881 118.308 19.9062C115.763 18.1243 113.026 16.7242 110.035 15.7059C107.044 14.6877 103.926 14.1786 100.68 14.1786C96.0979 14.1786 91.6431 15.1968 87.5065 17.2333C87.1246 17.2333 86.7428 17.2969 86.361 17.2969H85.2154C83.9426 17.2969 82.9244 17.2333 82.1607 17.0424C81.397 16.8515 80.8243 16.5333 80.3788 16.0878C79.9333 15.6423 79.6151 15.0059 79.4878 14.2422C79.2969 13.4785 79.1696 12.4603 79.0423 11.2511C76.1785 10.1056 73.2511 9.53284 70.26 9.53284C66.5052 9.53284 62.9413 10.4238 59.5684 12.0784C56.2591 13.7967 53.459 16.2151 51.2316 19.2698C50.4679 19.1425 49.7678 19.0152 49.0041 18.9516C48.2405 18.8879 47.5404 18.8243 46.7767 18.8243C43.6584 18.8243 40.6673 19.3971 37.8035 20.6062C34.9397 21.8154 32.4577 23.47 30.2939 25.5065C28.1301 27.543 26.4119 30.025 25.2027 32.8252C23.9299 35.6253 23.2935 38.6164 23.2935 41.7984C23.2935 42.1166 23.2935 42.3076 23.3571 42.4348C21.3843 42.753 19.4751 43.3894 17.7568 44.344C16.0385 45.2986 14.5748 46.5078 13.302 47.9079C12.0292 49.3716 11.0746 50.9626 10.3109 52.8082C9.5472 54.6538 9.229 56.563 9.229 58.5994V72.6639C9.229 75.5914 9.80177 78.3279 10.8836 80.8735C11.9655 83.4191 13.4929 85.6465 15.4021 87.5557C17.3113 89.465 19.5387 90.9923 22.0843 92.0742C24.6299 93.1561 27.3665 93.7289 30.2939 93.7289H39.0126C39.0126 93.7289 39.7127 93.6016 40.7946 93.2834C41.8764 93.0288 43.022 92.7106 44.2948 92.3288C45.5676 92.0106 46.7767 91.6287 47.9859 91.3105C49.1951 90.9923 49.9587 90.7378 50.3406 90.6741C50.5315 91.3742 50.7224 92.0742 50.7861 92.7742C50.8497 93.4743 50.977 94.1743 51.0406 94.938C53.0135 97.5473 55.4954 99.5837 58.4229 100.984C61.3503 102.384 64.4687 103.148 67.7144 103.148C69.369 103.148 71.0873 102.957 72.8056 102.511C74.5239 102.129 76.1149 101.493 77.5786 100.666C78.1514 100.347 78.6605 99.9656 79.1696 99.5201C79.6787 99.1383 80.2515 98.7564 80.8243 98.4382C82.4153 97.6745 84.0699 97.0381 85.7882 96.4654C87.5065 95.8926 89.2248 95.3199 90.8794 94.6835L94.3796 98.3746H114.617C117.545 98.3746 120.281 97.8018 122.827 96.7199C125.372 95.6381 127.6 94.1107 129.509 92.2015C131.418 90.2923 132.946 88.0649 134.027 85.5193C135.109 82.9736 135.682 80.2371 135.682 77.3097C135.682 73.4276 134.664 69.8638 132.691 66.6181C132.691 65.3453 132.818 64.2634 132.882 63.3088C132.946 62.3542 133.2 61.5269 133.582 60.8905C133.964 60.2541 134.6 59.745 135.428 59.3631C136.255 59.0449 137.4 58.854 138.864 58.854C139.882 56.563 140.392 54.1446 140.392 51.4717C140.392 49.6262 140.137 47.8442 139.628 46.126L139.819 46.4442Z" fill="#F4ABBA"/>
<path d="M87.5668 17.3608C85.1485 14.6879 82.3483 12.7151 79.1026 11.4423C77.5753 12.4605 76.0479 13.606 74.5205 14.9425C72.9932 16.2789 71.5295 17.7426 70.193 19.27C68.8566 20.7974 67.5838 22.452 66.5655 24.1703C65.4836 25.8886 64.6563 27.6069 64.0835 29.3252C63.8926 29.9616 63.7653 30.5343 63.7653 31.1071C63.7653 32.4435 64.2108 33.5254 65.1654 34.48C66.0564 35.4346 67.2019 35.8801 68.4747 35.8801C69.493 35.8801 70.3203 35.6255 71.084 35.1164C71.8477 34.6073 72.3568 33.9073 72.8023 33.0163C73.7569 31.1707 74.7115 29.4524 75.7297 27.9251C76.7479 26.3977 77.8298 24.934 79.039 23.6612C80.2482 22.3247 81.6482 21.1792 83.112 20.161C84.5757 19.1427 86.3576 18.1245 88.3305 17.2335L87.6941 17.4881L87.5668 17.3608ZM107.741 75.0825C104.495 76.5462 101.504 78.5827 98.8311 81.2556L81.3937 98.693H94.6309L105.45 87.9378C106.468 86.9196 107.55 86.0286 108.568 85.2649C109.586 84.5649 110.668 83.9921 111.814 83.5466C112.959 83.1011 114.168 82.7829 115.378 82.592C116.65 82.4011 117.987 82.2738 119.514 82.2738C120.851 82.2738 121.933 81.8283 122.823 80.8737C123.714 79.9191 124.224 78.8372 124.224 77.5644C124.224 76.6735 124.033 75.9734 123.714 75.337C123.396 74.7006 122.951 74.2552 122.378 73.8733C121.805 73.4915 121.232 73.2369 120.532 73.1096C119.832 72.9823 119.069 72.8551 118.305 72.8551C114.487 72.8551 110.923 73.5551 107.677 75.0188L107.741 75.0825ZM129.888 51.1538C126.26 49.1173 122.378 47.8445 118.241 47.3353C117.923 45.7443 117.605 44.1533 117.478 42.5623C117.287 40.9713 117.223 39.3167 117.223 37.7257C117.223 36.3892 116.778 35.3073 115.823 34.4164C114.868 33.5254 113.787 33.0163 112.514 33.0163C111.241 33.0163 110.095 33.4618 109.204 34.4164C108.314 35.371 107.804 36.4529 107.804 37.7257C107.804 39.3167 107.868 40.844 108.059 42.435C108.186 44.0261 108.441 45.5534 108.695 47.1444H100.804C99.5312 47.1444 98.4493 47.5899 97.4947 48.5445C96.5401 49.4355 96.0946 50.5174 96.0946 51.7902C96.0946 53.063 96.5401 54.1448 97.4947 55.0994C98.4493 56.0541 99.5312 56.4995 100.804 56.4995C103.222 56.4995 105.641 56.4995 108.059 56.4995C110.477 56.4995 112.896 56.4995 115.314 56.4995C117.096 56.4995 118.878 56.7541 120.596 57.2632C122.314 57.7723 123.905 58.4724 125.433 59.3633C126.96 60.2543 128.36 61.3998 129.633 62.6726C130.906 63.9454 131.988 65.3455 132.942 66.8729C134.279 65.8546 135.488 64.7091 136.506 63.3727C137.524 62.0362 138.415 60.6361 139.052 59.1088C136.506 55.8631 133.451 53.1902 129.824 51.0901L129.888 51.1538ZM59.8833 52.4266C58.0377 52.872 56.1922 53.4448 54.4102 54.1448C53.9011 53.4448 53.1374 52.6175 52.1192 51.5992C51.1009 50.581 50.0191 49.6264 48.8735 48.6718C47.728 47.7172 46.5825 46.9535 45.3733 46.2535C44.2278 45.5534 43.1459 45.2352 42.255 45.2352C40.9185 45.2352 39.8366 45.6807 38.882 46.6353C37.9274 47.5263 37.4819 48.6718 37.4819 49.9446C37.4819 50.8992 37.7365 51.7265 38.182 52.3629C38.6275 53.063 39.2639 53.6357 40.0275 54.0812C41.8095 55.2267 43.4005 56.4359 44.8006 57.6451C46.2006 58.9179 47.4098 60.3179 48.4281 61.8453C49.4463 63.3727 50.21 65.0273 50.7191 66.8092C51.2282 68.5912 51.4828 70.6277 51.4828 72.8551C51.4828 75.0825 51.2282 77.119 50.6555 78.9009C50.0827 80.6828 49.319 82.2738 48.4281 83.8012C47.4734 85.3286 46.3916 86.7286 45.1188 88.0651C43.846 89.4015 42.4459 90.738 41.0458 92.1381L39.1366 93.9836H50.3373L51.2282 95.1291C52.7556 93.4109 54.092 91.7562 55.3012 90.1016C56.5104 88.4469 57.5286 86.7286 58.2923 84.9467C59.1196 83.1648 59.6924 81.3192 60.1379 79.3464C60.5833 77.3735 60.7743 75.2098 60.7743 72.8551C60.7743 69.2276 60.1379 65.7274 58.865 62.2908C60.9652 61.5271 63.1289 61.1453 65.4836 61.1453C66.8201 61.1453 67.902 60.6998 68.7929 59.7452C69.6839 58.7906 70.193 57.7087 70.193 56.4359C70.193 55.1631 69.7475 54.0812 68.7929 53.1266C67.8383 52.172 66.7564 51.7265 65.4836 51.7265C63.5108 51.7265 61.6016 51.9174 59.756 52.3629L59.8833 52.4266Z" fill="#E6808A"/>
</svg>
