<svg width="132" height="151" viewBox="0 0 132 151" fill="none" xmlns="http://www.w3.org/2000/svg">
<path d="M80.0905 150.5C82.4442 150.5 84.6707 150.055 86.8335 149.228C88.9328 148.401 90.8412 147.256 92.4951 145.793C94.1491 144.33 95.5486 142.612 96.63 140.64C97.7114 138.668 98.4111 136.441 98.6656 134.088L116.605 125.055C118.958 123.91 120.93 122.319 122.584 120.284C124.238 118.312 125.447 116.022 126.147 113.413C127.864 111.823 129.2 110.042 130.154 107.879C131.108 105.78 131.554 103.553 131.554 101.2V100.5C131.554 98.9733 131.554 97.5102 131.49 96.1743C131.49 94.8384 131.299 93.5025 130.981 92.2303C130.663 90.958 130.218 89.7494 129.518 88.5407C128.818 87.3321 127.928 86.187 126.783 84.9784L98.7292 56.9249V33.2608C98.7292 28.7443 97.8386 24.4822 96.1211 20.5382C94.4035 16.5941 92.0498 13.0954 89.06 10.1056C86.0702 7.11578 82.5715 4.76209 78.6274 3.04453C74.6198 1.32697 70.4213 0.5 65.9048 0.5C61.3883 0.5 57.1262 1.39059 53.1821 3.04453C49.1745 4.76209 45.7394 7.11578 42.7496 10.1056C39.7598 13.0954 37.4061 16.5941 35.6885 20.5382C33.9709 24.5458 33.0804 28.7443 33.0804 33.2608V56.9249L5.15416 85.042C3.62744 86.5687 2.4824 88.3499 1.65543 90.3219C0.828457 92.2939 0.446777 94.3931 0.446777 96.556V97.0013C0.446777 98.6552 0.446777 100.182 0.574004 101.645C0.637617 103.108 0.828457 104.508 1.21014 105.844C1.5282 107.179 2.10072 108.515 2.80047 109.724C3.50021 110.996 4.58164 112.205 5.91752 113.413C6.68087 116.022 7.82591 118.312 9.47986 120.284C11.1338 122.256 13.1694 123.846 15.5231 125.055L33.3984 134.088C33.7165 136.441 34.4162 138.604 35.4977 140.64C36.5791 142.612 37.9786 144.393 39.6325 145.856C41.2865 147.319 43.1949 148.464 45.3577 149.291C47.457 150.118 49.747 150.5 52.1007 150.5H62.2152C62.8514 150.5 63.5511 150.373 64.1872 150.182C64.887 149.991 65.5231 149.864 66.0956 149.864C66.7318 149.864 67.4315 149.991 68.0676 150.182C68.7674 150.373 69.4035 150.5 70.1033 150.5H80.1542H80.0905Z" fill="black"/>
<path d="M89.5027 108.324H84.7953L66.0294 98.9094L47.2635 108.324H42.5562V127.09H89.5027V108.324Z" fill="#0078D7"/>
<path d="M104.008 99.9911L59.0974 122.447H51.9727C50.6368 122.447 49.4282 122.701 48.2832 123.21C47.1381 123.719 46.1203 124.355 45.2933 125.246C44.4664 126.072 43.7666 127.09 43.3213 128.235C42.8124 129.38 42.6216 130.589 42.6216 131.861C42.6216 133.134 42.876 134.406 43.3849 135.487C43.8938 136.632 44.53 137.586 45.4206 138.477C46.2475 139.304 47.2653 140.004 48.4104 140.449C49.5554 140.958 50.7641 141.149 52.0363 141.149H61.5147C62.2145 141.149 62.9142 141.085 63.6139 140.894C64.3137 140.704 65.0134 140.513 65.586 140.195L112.405 116.785C113.996 116.022 115.204 114.877 116.158 113.35C117.113 111.823 117.622 110.169 117.622 108.324C117.622 107.052 117.367 105.843 116.858 104.762C116.349 103.617 115.713 102.663 114.823 101.772C113.996 100.945 112.978 100.245 111.833 99.8002C110.688 99.2913 109.479 99.1005 108.207 99.1005C106.744 99.1005 105.344 99.4185 104.008 100.055V99.9911Z" fill="#D8B094"/>
<path d="M89.5063 33.3242C89.5063 30.08 88.8702 27.0265 87.6616 24.1639C86.4529 21.3013 84.7354 18.884 82.6361 16.7212C80.4733 14.6219 77.9924 12.9044 75.1934 11.6957C72.3308 10.4871 69.341 9.85095 66.0967 9.85095C62.8524 9.85095 59.8626 10.4871 57 11.6957C54.1374 12.9044 51.6565 14.6219 49.5572 16.7212C47.3944 18.8204 45.7404 21.3013 44.5318 24.1639C43.3231 27.0265 42.687 30.0163 42.687 33.2606V66.085H89.57V33.2606L89.5063 33.3242Z" fill="#2B2B2B"/>
<path d="M66.4119 31.798C64.8852 32.8158 63.1677 33.3247 61.3229 33.3247V26.2637C59.6053 28.3629 57.5061 30.0805 55.0888 31.3527C52.6715 32.625 50.0633 33.2611 47.2644 33.2611C47.2644 35.8693 47.7733 38.2866 48.7275 40.5766C49.6817 42.8667 51.0175 44.8387 52.7351 46.5563C54.4527 48.2738 56.4247 49.6097 58.6511 50.5639C60.9412 51.5181 63.3585 52.027 65.9667 52.027C68.5748 52.027 70.9921 51.5181 73.2822 50.5639C75.5723 49.6097 77.5443 48.2738 79.2618 46.5563C80.9794 44.8387 82.3153 42.8667 83.2695 40.5766C84.2237 38.2866 84.7326 35.8693 84.7326 33.2611C81.9972 33.2611 79.3254 32.7522 76.7809 31.798C74.2364 30.8438 71.8827 29.4443 69.7835 27.6632C69.0201 29.3807 67.8751 30.7166 66.3483 31.7344L66.4119 31.798ZM51.9717 56.798C51.9717 56.798 51.4628 56.798 51.1448 56.9889C50.8903 57.1161 50.5723 57.1797 50.3178 57.2433C49.8725 57.2433 49.4908 57.3069 49.1728 57.3069H48.2186C47.5824 57.3069 47.0735 57.3705 46.501 57.5614C45.9921 57.6886 45.356 58.1339 44.5926 58.8973L11.7682 91.5945C10.8776 92.485 10.3051 93.5029 10.0506 94.6479C9.79617 95.7293 9.66895 96.8744 9.66895 98.083C9.66895 98.5919 9.66895 99.1644 9.66895 99.6733C9.66895 100.246 9.66895 100.755 9.66895 101.264C9.66895 102.79 10.1142 104.126 11.0048 105.399C11.8954 106.607 12.9768 107.434 14.3763 107.943V108.452C14.3763 110.17 14.8216 111.823 15.7758 113.287C16.73 114.813 17.9387 115.958 19.529 116.722L66.4119 140.131C67.7478 140.767 69.0837 141.086 70.6104 141.086H80.0252C81.3611 141.086 82.5697 140.831 83.6511 140.386C84.7962 139.877 85.7504 139.241 86.641 138.414C87.4679 137.587 88.1677 136.569 88.6766 135.424C89.1855 134.279 89.4399 133.07 89.4399 131.798C89.4399 130.526 89.1855 129.253 88.6766 128.172C88.1677 127.027 87.5315 126.073 86.641 125.182C85.814 124.355 84.7962 123.656 83.6511 123.147C82.5061 122.638 81.2974 122.383 80.0252 122.383H72.8369L27.9896 99.9278C26.9081 99.3553 25.6995 99.0372 24.3636 98.9736L47.7733 75.5003L65.9667 89.3044L84.16 75.5003L108.142 99.4825V101.264C108.142 102.281 108.333 103.172 108.715 104.063C109.096 104.89 109.605 105.653 110.241 106.289C110.878 106.925 111.641 107.434 112.468 107.816C113.295 108.198 114.249 108.388 115.267 108.388C116.285 108.388 117.112 108.198 118.002 107.816C118.893 107.434 119.593 106.925 120.229 106.289C120.865 105.653 121.374 104.89 121.755 104.063C122.137 103.236 122.328 102.281 122.328 101.327V96.6199C122.328 94.7115 121.628 93.0576 120.229 91.6581L87.4043 58.8336C86.8954 58.3247 86.5137 58.0067 86.1957 57.8158C85.8776 57.625 85.4959 57.4342 85.1142 57.3705C84.7326 57.3705 84.3509 57.2433 83.9692 57.2433C83.5875 57.2433 83.015 57.2433 82.4425 57.1797C82.1244 57.1797 81.7427 57.0525 81.2974 56.9252C80.8522 56.798 80.5341 56.7344 80.1524 56.7344H52.0354L51.9717 56.798Z" fill="#F7D7C4"/>
<path d="M80.088 56.7983V61.4421C80.088 63.4141 79.7063 65.1953 79.0065 66.9128C78.2432 68.6304 77.2254 70.0935 75.9531 71.3658C74.6808 72.638 73.1541 73.6558 71.5002 74.4192C69.8462 75.1826 68.0014 75.5006 66.0294 75.5006C64.0574 75.5006 62.2763 75.1189 60.5587 74.4192C58.8411 73.7195 57.378 72.7016 56.1058 71.3658C54.8335 70.0935 53.8157 68.5668 53.116 66.9128C52.3526 65.1953 52.0345 63.4141 52.0345 61.4421V56.7983H47.3271V108.325H84.859V56.7983H80.1516H80.088Z" fill="#00CEA6"/>
<path d="M57.3174 37.2679C57.8263 37.7768 58.3352 37.9676 58.9714 37.9676C59.6075 37.9676 60.18 37.7132 60.6253 37.2679C61.0706 36.8226 61.3251 36.2501 61.3251 35.6139C61.3251 34.9778 61.0706 34.4053 60.6253 33.96C60.18 33.5147 59.6075 33.2603 58.9714 33.2603C58.3352 33.2603 57.8263 33.5147 57.3174 33.96C56.8085 34.4689 56.6177 34.9778 56.6177 35.6139C56.6177 36.2501 56.8721 36.759 57.3174 37.2679ZM71.3759 37.3315C71.8212 37.7768 72.3938 38.0312 73.0299 38.0312C73.666 38.0312 74.2385 37.7768 74.6838 37.3315C75.1291 36.8862 75.3836 36.3137 75.3836 35.6776C75.3836 35.0414 75.1291 34.4689 74.6838 34.0236C74.2385 33.5783 73.666 33.3239 73.0299 33.3239C72.3938 33.3239 71.8212 33.5783 71.3759 34.0236C70.9307 34.4689 70.6762 35.0414 70.6762 35.6776C70.6762 36.3137 70.9307 36.8862 71.3759 37.3315Z" fill="black"/>
</svg>
