<svg width="25" height="25" viewBox="0 0 25 25" fill="none" xmlns="http://www.w3.org/2000/svg">
<path d="M19.5 21.5L19.0315 22.0857L20.25 23.0605V21.5H19.5ZM12 15.5L12.4685 14.9143C12.1946 14.6952 11.8054 14.6952 11.5315 14.9143L12 15.5ZM4.5 21.5H3.75V23.0605L4.96852 22.0857L4.5 21.5ZM4.5 2.5V1.75H3.75V2.5H4.5ZM19.5 2.5H20.25V1.75H19.5V2.5ZM19.5 21.5L19.9685 20.9143L12.4685 14.9143L12 15.5L11.5315 16.0857L19.0315 22.0857L19.5 21.5ZM12 15.5L11.5315 14.9143L4.03148 20.9143L4.5 21.5L4.96852 22.0857L12.4685 16.0857L12 15.5ZM4.5 21.5H5.25V2.5H4.5H3.75V21.5H4.5ZM4.5 2.5V3.25H19.5V2.5V1.75H4.5V2.5ZM19.5 2.5H18.75V21.5H19.5H20.25V2.5H19.5Z" fill="#292828"/>
</svg>
