<svg width="26" height="25" viewBox="0 0 26 25" fill="none" xmlns="http://www.w3.org/2000/svg">
<path d="M13.0001 21.6993C12.7947 21.7011 12.5911 21.6614 12.4014 21.5825C12.2118 21.5037 12.0401 21.3873 11.8966 21.2403L3.78133 13.1251C3.21806 12.5633 2.7753 11.8926 2.48011 11.1538C2.18492 10.4151 2.04352 9.62392 2.06454 8.82868C2.08557 8.03343 2.26858 7.25084 2.60238 6.52874C2.93619 5.80664 3.41378 5.16021 4.00594 4.62899C4.57422 4.11842 5.24038 3.72875 5.96394 3.48364C6.6875 3.23854 7.45334 3.14313 8.21492 3.20321C9.74596 3.30267 11.1876 3.95922 12.2677 5.04891L13.0001 5.77157L13.9376 4.84383C14.4994 4.28056 15.1701 3.8378 15.9088 3.54261C16.6476 3.24742 17.4387 3.10602 18.234 3.12704C19.0292 3.14807 19.8118 3.33108 20.5339 3.66488C21.256 3.99869 21.9025 4.47628 22.4337 5.06844C22.9442 5.63672 23.3339 6.30288 23.579 7.02644C23.8241 7.75 23.9195 8.51584 23.8595 9.27743C23.76 10.8085 23.1034 12.2501 22.0138 13.3302L14.1036 21.2403C13.9601 21.3873 13.7884 21.5037 13.5987 21.5825C13.4091 21.6614 13.2055 21.7011 13.0001 21.6993ZM7.8243 4.75594C6.80529 4.74566 5.81811 5.11064 5.05086 5.78133C4.61591 6.17147 4.2651 6.64621 4.01987 7.17654C3.77464 7.70687 3.64015 8.28164 3.62461 8.86571C3.60907 9.44979 3.71281 10.0309 3.9295 10.5735C4.14618 11.1161 4.47126 11.6089 4.88485 12.0216L13.5567 20.6934L13.0001 20.1368L20.9102 12.2266C22.6192 10.5274 22.7755 7.78328 21.2813 6.11336C20.8912 5.67841 20.4165 5.3276 19.8861 5.08237C19.3558 4.83714 18.781 4.70265 18.197 4.68711C17.6129 4.67157 17.0318 4.77531 16.4891 4.992C15.9465 5.20868 15.4538 5.53376 15.0411 5.94735L13.5567 7.43172C13.4086 7.57843 13.2086 7.66073 13.0001 7.66073C12.7916 7.66073 12.5916 7.57843 12.4434 7.43172L11.1641 6.15243C10.7265 5.71161 10.2063 5.36139 9.63321 5.12177C9.06014 4.88215 8.44545 4.75784 7.8243 4.75594Z" fill="#292828"/>
</svg>
