<svg width="26" height="25" viewBox="0 0 26 25" fill="none" xmlns="http://www.w3.org/2000/svg">
<path d="M3.62501 11.9792C3.62142 13.3541 3.94265 14.7103 4.56251 15.9375C5.29748 17.4081 6.42735 18.645 7.82558 19.5097C9.22381 20.3744 10.8352 20.8327 12.4792 20.8334C13.854 20.8369 15.2103 20.5157 16.4375 19.8959L22 21L20.3958 15.9375C21.0157 14.7103 21.3369 13.3541 21.3333 11.9792C21.3327 10.3352 20.8744 8.72383 20.0097 7.3256C19.145 5.92737 17.9081 4.7975 16.4375 4.06253C15.2103 3.44267 13.854 3.12145 12.4792 3.12503H11.9583C9.78715 3.24481 7.73642 4.16124 6.19882 5.69884C4.66122 7.23644 3.74479 9.28717 3.62501 11.4584V11.9792Z" stroke="#292828" stroke-width="1.5" stroke-linecap="round" stroke-linejoin="round"/>
</svg>
