<?xml version="1.0" encoding="UTF-8"?>
<svg id="Capa_4" data-name="Capa 4" xmlns="http://www.w3.org/2000/svg" viewBox="0 0 108.91 114.3">
  <defs>
    <style>
      .cls-1 {
        fill: #fff;
      }

      .cls-2 {
        fill: #d1614e;
      }
    </style>
  </defs>
  <path class="cls-2" d="M92.55,57.15c0-5.14,17.77-13.03,16.27-17.66s-20.62-.73-23.53-4.73c-2.94-4.04,6.81-20.9,2.77-23.84-4-2.91-17.01,11.55-21.82,9.99S59.59,0,54.46,0s-7.14,19.4-11.78,20.9-17.82-12.9-21.82-9.99c-4.04,2.94,5.71,19.8,2.77,23.84s-21.97-.08-23.53,4.73c-1.51,4.64,16.27,12.52,16.27,17.66S-1.41,70.18.09,74.81c1.56,4.8,20.62.73,23.53,4.73,2.94,4.04-6.81,20.9-2.77,23.84,4,2.91,17.01-11.55,21.82-9.99,4.64,1.51,6.64,20.9,11.78,20.9s7.14-19.4,11.78-20.9,17.82,12.9,21.82,9.99-5.71-19.8-2.77-23.84,21.97.08,23.53-4.73-16.27-12.52-16.27-17.66Z"/>
  <g>
    <path class="cls-1" d="M49,51.1c-.04-.6-.09-1.27-.15-2.03-.06-.75-.13-1.53-.19-2.32s-.14-1.56-.2-2.28c-.07-.73-.13-1.37-.19-1.93-.06-.56-.12-.96-.17-1.22-.07-.34-.28-.59-.64-.76-.36-.17-.83-.25-1.42-.25-.33,0-.64.03-.93.09-.29.06-.53.15-.72.25-.29.76-.63,1.71-1.03,2.85-.4,1.14-.79,2.31-1.17,3.51h-.1c-.19-.53-.4-1.12-.62-1.78-.22-.66-.45-1.31-.68-1.96s-.45-1.21-.65-1.7c-.16-.45-.43-.77-.81-.97-.37-.2-.87-.3-1.48-.3-.57,0-1.02.08-1.35.25s-.54.34-.65.5c-.05.71-.11,1.48-.17,2.31s-.12,1.68-.16,2.54c-.05.86-.1,1.67-.14,2.44-.05.77-.09,1.45-.12,2.04-.03.59-.05,1.04-.05,1.33,0,.44.15.74.44.92.29.18.7.26,1.21.26.24,0,.49-.03.74-.08.25-.05.45-.1.6-.14.05-.83.09-1.59.12-2.28.03-.69.05-1.38.06-2.05s.03-1.36.06-2.07c.03-.71.06-1.49.1-2.34h.1c.18.62.42,1.37.74,2.22.32.86.71,1.93,1.17,3.22.08.26.27.44.55.55.29.11.64.16,1.06.16.33,0,.61-.04.87-.12.25-.08.45-.18.6-.31.48-1.4.87-2.54,1.19-3.43.32-.89.57-1.63.74-2.21h.1c.03.57.05,1.25.07,2.05s.05,1.67.09,2.63c.04.96.09,1.97.16,3.03.03.46.19.78.5.94.31.16.68.24,1.11.24.34,0,.62-.03.85-.09s.44-.15.64-.28c-.01-.35-.04-.83-.08-1.43Z"/>
    <path class="cls-1" d="M55.77,42.03l1.94-1.65c.29-.24.49-.46.61-.65.12-.19.18-.43.18-.71,0-.33-.16-.62-.47-.89s-.77-.4-1.39-.4l-2.04,2.22c-.15.16-.26.31-.33.45-.07.14-.1.29-.1.45,0,.29.14.55.41.81.27.25.67.38,1.18.38Z"/>
    <path class="cls-1" d="M58.62,43.52c-.84-.59-1.97-.89-3.38-.89-.49,0-1,.04-1.52.11-.52.08-.98.19-1.38.36-.63.26-.94.67-.94,1.24,0,.25.06.48.17.7.12.22.25.39.42.5.39-.16.84-.31,1.33-.43.5-.12,1-.18,1.52-.18.67,0,1.18.1,1.54.31.36.2.54.54.54,1v.24l-2.71.29c-1.13.11-1.98.41-2.55.91s-.86,1.21-.86,2.13c0,1.07.41,1.88,1.23,2.43s1.93.82,3.31.82c.77,0,1.46-.07,2.07-.21.6-.14,1.11-.34,1.52-.58.27-.15.5-.33.67-.54s.27-.49.27-.83v-4.63c0-1.24-.42-2.15-1.26-2.74ZM56.95,50.48c-.14.08-.36.15-.66.21-.31.06-.61.09-.93.09-.57,0-.99-.1-1.24-.3-.26-.2-.39-.46-.39-.78s.14-.57.41-.73c.27-.16.64-.26,1.1-.29l1.71-.16v1.96Z"/>
    <path class="cls-1" d="M65.15,48.79l.86.2c.41.07.7.17.88.32.18.14.26.34.26.58,0,.57-.5.86-1.49.86-.65,0-1.23-.09-1.74-.27-.51-.18-.96-.38-1.33-.6-.19.12-.35.29-.47.5-.12.21-.18.46-.18.74,0,.64.36,1.12,1.08,1.45s1.64.49,2.75.49c1.43,0,2.51-.28,3.26-.85.75-.56,1.12-1.34,1.12-2.33,0-.82-.27-1.48-.79-1.99-.53-.51-1.4-.9-2.61-1.17l-.81-.2c-.39-.08-.67-.19-.83-.32-.16-.13-.23-.28-.23-.46,0-.27.14-.47.41-.6.27-.13.65-.19,1.14-.19.31,0,.65.03,1.01.1.36.07.69.16,1,.26.31.11.53.21.68.31.18-.14.32-.31.43-.51.11-.2.16-.44.16-.71,0-.39-.16-.72-.47-.99s-.74-.46-1.27-.59-1.13-.19-1.78-.19c-1.3,0-2.34.28-3.11.85-.77.56-1.15,1.32-1.15,2.27,0,.84.27,1.5.81,1.99.54.48,1.35.84,2.44,1.07Z"/>
    <path class="cls-1" d="M28.52,58.99c-.7-.37-1.52-.56-2.46-.56-.64,0-1.25.1-1.84.31-.59.2-1.12.51-1.59.93-.47.42-.84.94-1.12,1.58-.28.64-.42,1.39-.42,2.26,0,1.18.24,2.17.71,2.96s1.13,1.38,1.97,1.77c.84.39,1.78.59,2.82.59.72,0,1.36-.07,1.93-.2.56-.14,1.01-.34,1.32-.61.32-.27.48-.61.48-1.02,0-.25-.06-.48-.19-.69-.13-.22-.3-.39-.5-.51-.31.18-.72.35-1.22.51s-1.04.24-1.61.24c-.71,0-1.32-.16-1.83-.48-.41-.25-.69-.65-.85-1.18l5.34-.79c.41-.05.73-.19.96-.41.23-.22.35-.54.35-.96,0-.84-.2-1.58-.59-2.22s-.94-1.14-1.64-1.52ZM23.92,62.84c.06-.66.26-1.18.63-1.55.41-.42.92-.62,1.53-.62s1.03.16,1.33.49c.3.33.46.68.49,1.06l-3.97.62Z"/>
    <path class="cls-1" d="M34.07,55.06c-.29,0-.55.02-.79.06s-.44.08-.57.12v12.01c0,.53.14.9.41,1.1.27.2.69.31,1.26.31.29,0,.55-.02.79-.05.24-.03.43-.07.57-.11v-12.01c0-.54-.13-.92-.4-1.12-.27-.2-.69-.31-1.27-.31Z"/>
    <path class="cls-1" d="M45.17,58.99c-.7-.37-1.52-.56-2.46-.56-.64,0-1.25.1-1.84.31-.59.2-1.12.51-1.59.93-.47.42-.84.94-1.12,1.58-.28.64-.42,1.39-.42,2.26,0,1.18.24,2.17.71,2.96s1.13,1.38,1.97,1.77c.84.39,1.78.59,2.82.59.72,0,1.36-.07,1.93-.2.56-.14,1.01-.34,1.32-.61.32-.27.48-.61.48-1.02,0-.25-.06-.48-.19-.69-.13-.22-.3-.39-.5-.51-.31.18-.72.35-1.22.51s-1.04.24-1.61.24c-.71,0-1.32-.16-1.83-.48-.41-.25-.69-.65-.85-1.18l5.34-.79c.41-.05.73-.19.96-.41.23-.22.35-.54.35-.96,0-.84-.2-1.58-.59-2.22s-.94-1.14-1.64-1.52ZM40.58,62.84c.06-.66.26-1.18.63-1.55.41-.42.92-.62,1.53-.62s1.03.16,1.33.49c.3.33.46.68.49,1.06l-3.97.62Z"/>
    <path class="cls-1" d="M57.45,59.37c-.35-.23-.85-.44-1.48-.64s-1.31-.3-2.05-.3c-1.02,0-1.92.19-2.69.56-.77.37-1.38.92-1.8,1.65s-.64,1.63-.64,2.7c0,1.16.21,2.09.62,2.8.41.71.96,1.22,1.65,1.53.69.31,1.43.46,2.23.46.58,0,1.08-.06,1.49-.18.23-.07.44-.15.63-.24v.71c0,.62-.22,1.08-.67,1.36-.45.28-1.05.42-1.81.42-.56,0-1.09-.08-1.59-.24-.5-.16-.94-.34-1.3-.56-.16.11-.3.27-.42.5-.12.22-.17.48-.17.76,0,.54.23.96.69,1.26.29.19.7.35,1.25.47.55.12,1.18.18,1.89.18.94,0,1.78-.14,2.54-.43.75-.29,1.35-.73,1.79-1.32.44-.6.66-1.37.66-2.32v-7.71c0-.34-.07-.62-.22-.85-.15-.22-.35-.42-.59-.58ZM55.35,65.38c-.12.08-.25.16-.39.23-.3.16-.67.23-1.12.23-.58,0-1.07-.18-1.46-.54-.39-.36-.58-1.02-.58-1.97,0-.87.21-1.51.62-1.92.41-.41.95-.61,1.6-.61.31,0,.57.03.79.1.21.07.39.14.54.22v4.25Z"/>
    <path class="cls-1" d="M62.08,58.67c-.29,0-.55.02-.81.06-.25.04-.44.08-.56.12v8.4c0,.53.13.9.4,1.1.27.2.69.31,1.27.31.29,0,.55-.02.79-.05.24-.03.43-.07.55-.11v-8.4c0-.56-.13-.93-.39-1.13-.26-.2-.68-.29-1.26-.29Z"/>
    <path class="cls-1" d="M62.22,54.29c-.49,0-.89.16-1.21.47s-.48.7-.48,1.16.16.84.48,1.16.72.49,1.21.49.91-.16,1.22-.49c.31-.33.47-.71.47-1.16s-.16-.85-.47-1.16c-.31-.31-.72-.47-1.22-.47Z"/>
    <path class="cls-1" d="M73.86,55.06c-.29,0-.55.02-.79.06s-.43.08-.55.12v3.48c-.13-.05-.26-.1-.41-.14-.38-.11-.82-.16-1.3-.16-.94,0-1.79.19-2.57.57-.77.38-1.39.95-1.84,1.72-.46.77-.68,1.75-.68,2.95s.22,2.1.66,2.86c.44.77,1.07,1.34,1.9,1.72.82.38,1.8.57,2.92.57.77,0,1.46-.09,2.05-.28.59-.18,1.07-.4,1.44-.64.3-.18.52-.38.65-.6.14-.22.2-.5.2-.83v-9.99c0-.54-.13-.92-.39-1.12-.26-.2-.69-.31-1.28-.31ZM72.52,66.09c-.14.08-.32.16-.55.23-.23.08-.5.11-.79.11-.73,0-1.31-.22-1.74-.67-.43-.45-.64-1.15-.64-2.1,0-.65.1-1.19.31-1.61.2-.42.49-.73.86-.94.37-.2.79-.31,1.26-.31.41,0,.77.07,1.08.2.08.04.15.08.22.11v4.96Z"/>
    <path class="cls-1" d="M87.17,60.88c-.44-.78-1.04-1.39-1.81-1.81-.77-.43-1.68-.64-2.71-.64s-1.92.21-2.7.64c-.78.43-1.39,1.03-1.82,1.79-.44.77-.65,1.69-.65,2.76s.21,2,.64,2.78,1.03,1.38,1.81,1.79c.78.42,1.69.62,2.72.62s1.96-.21,2.73-.63,1.38-1.02,1.8-1.8c.43-.78.64-1.7.64-2.76s-.22-1.96-.65-2.74ZM84.17,65.71c-.37.49-.88.73-1.53.73s-1.16-.24-1.53-.72c-.37-.48-.55-1.18-.55-2.09s.19-1.59.56-2.08c.37-.49.88-.73,1.52-.73s1.16.25,1.53.74.55,1.19.55,2.07-.18,1.59-.55,2.08Z"/>
  </g>
</svg>