<svg width="76" height="75" viewBox="0 0 76 75" fill="none" xmlns="http://www.w3.org/2000/svg">
<rect width="75.75" height="74.75" rx="15" fill="#56C172"/>
<g clip-path="url(#clip0_2179_1255)">
<path fill-rule="evenodd" clip-rule="evenodd" d="M19.5 24.122V49.5497C21.9097 48.6528 25.0309 47.7764 28.1284 47.474C31.0001 47.1896 34.1081 47.3741 36.5625 48.7348V23.7607C34.8458 21.9951 31.8848 21.4903 28.3935 21.8337C25.1543 22.1514 21.8231 23.1739 19.5 24.122ZM39.1875 23.7607V48.7348C41.6419 47.3767 44.7525 47.1896 47.6216 47.4715C50.7191 47.779 53.8429 48.6528 56.25 49.5497V24.122C53.9269 23.1739 50.5958 22.1514 47.3565 21.8337C43.8653 21.4903 40.9042 21.9951 39.1875 23.7607ZM37.875 21.4442C35.2894 19.2737 31.5409 18.9509 28.1284 19.284C24.1541 19.676 20.1431 21.006 17.6441 22.1155C17.4148 22.2173 17.2204 22.3814 17.084 22.5882C16.9476 22.7949 16.8751 23.0356 16.875 23.2815V51.469C16.8751 51.6834 16.9302 51.8943 17.0354 52.0825C17.1406 52.2706 17.2925 52.43 17.4772 52.546C17.6619 52.6621 17.8734 52.731 18.0924 52.7465C18.3115 52.762 18.531 52.7237 18.7309 52.6349C21.0461 51.6099 24.7763 50.3774 28.3909 50.0212C32.0895 49.6573 35.1896 50.2441 36.8513 52.2685C36.9742 52.4181 37.1301 52.5389 37.3073 52.6219C37.4845 52.7049 37.6785 52.748 37.875 52.748C38.0715 52.748 38.2655 52.7049 38.4427 52.6219C38.6199 52.5389 38.7758 52.4181 38.8988 52.2685C40.5604 50.2441 43.6605 49.6573 47.3565 50.0212C50.9738 50.3774 54.7065 51.6099 57.0191 52.6349C57.219 52.7237 57.4385 52.762 57.6576 52.7465C57.8766 52.731 58.0881 52.6621 58.2728 52.546C58.4575 52.43 58.6094 52.2706 58.7146 52.0825C58.8198 51.8943 58.8749 51.6834 58.875 51.469V23.2815C58.8749 23.0356 58.8024 22.7949 58.666 22.5882C58.5296 22.3814 58.3352 22.2173 58.1059 22.1155C55.6069 21.006 51.5959 19.676 47.6216 19.284C44.2091 18.9483 40.4606 19.2737 37.875 21.4442Z" fill="#FAF4ED"/>
</g>
<defs>
<clipPath id="clip0_2179_1255">
<rect width="42" height="41" fill="white" transform="translate(16.875 16.875)"/>
</clipPath>
</defs>
</svg>
