<svg width="76" height="76" viewBox="0 0 76 76" fill="none" xmlns="http://www.w3.org/2000/svg">
<rect width="75.75" height="75.75" rx="15" fill="#56C172"/>
<g clip-path="url(#clip0_2179_1241)">
<path fill-rule="evenodd" clip-rule="evenodd" d="M24.75 23.4375C24.75 21.697 25.4414 20.0278 26.6721 18.7971C27.9028 17.5664 29.572 16.875 31.3125 16.875C33.053 16.875 34.7222 17.5664 35.9529 18.7971C37.1836 20.0278 37.875 21.697 37.875 23.4375C37.875 21.697 38.5664 20.0278 39.7971 18.7971C41.0278 17.5664 42.697 16.875 44.4375 16.875C46.178 16.875 47.8472 17.5664 49.0779 18.7971C50.3086 20.0278 51 21.697 51 23.4375V23.4533C51 23.637 51 24.162 50.9002 24.75H56.25C56.9462 24.75 57.6139 25.0266 58.1062 25.5188C58.5984 26.0111 58.875 26.6788 58.875 27.375V32.625C58.875 33.3212 58.5984 33.9889 58.1062 34.4812C57.6139 34.9734 56.9462 35.25 56.25 35.25V54.9375C56.25 55.9818 55.8352 56.9833 55.0967 57.7217C54.3583 58.4602 53.3568 58.875 52.3125 58.875H23.4375C22.3932 58.875 21.3917 58.4602 20.6533 57.7217C19.9148 56.9833 19.5 55.9818 19.5 54.9375V35.25C18.8038 35.25 18.1361 34.9734 17.6438 34.4812C17.1516 33.9889 16.875 33.3212 16.875 32.625V27.375C16.875 26.6788 17.1516 26.0111 17.6438 25.5188C18.1361 25.0266 18.8038 24.75 19.5 24.75H24.8498C24.7804 24.3213 24.7471 23.8875 24.75 23.4533V23.4375ZM27.5535 24.75H35.25V23.4375C35.25 22.9204 35.1482 22.4084 34.9503 21.9307C34.7524 21.453 34.4624 21.0189 34.0967 20.6533C33.7311 20.2876 33.297 19.9976 32.8193 19.7997C32.3416 19.6018 31.8296 19.5 31.3125 19.5C30.7954 19.5 30.2834 19.6018 29.8057 19.7997C29.328 19.9976 28.8939 20.2876 28.5283 20.6533C28.1626 21.0189 27.8726 21.453 27.6747 21.9307C27.4768 22.4084 27.375 22.9204 27.375 23.4375C27.375 23.6606 27.3803 24.1568 27.4931 24.5663C27.5089 24.6288 27.5291 24.6902 27.5535 24.75V24.75ZM40.5 24.75H48.1965C48.2206 24.6901 48.2408 24.6288 48.2569 24.5663C48.3697 24.1568 48.375 23.6606 48.375 23.4375C48.375 22.3932 47.9602 21.3917 47.2217 20.6533C46.4833 19.9148 45.4818 19.5 44.4375 19.5C43.3932 19.5 42.3917 19.9148 41.6533 20.6533C40.9148 21.3917 40.5 22.3932 40.5 23.4375V24.75ZM19.5 27.375V32.625H35.25V27.375H19.5ZM40.5 27.375V32.625H56.25V27.375H40.5ZM53.625 35.25H40.5V56.25H52.3125C52.6606 56.25 52.9944 56.1117 53.2406 55.8656C53.4867 55.6194 53.625 55.2856 53.625 54.9375V35.25ZM35.25 56.25V35.25H22.125V54.9375C22.125 55.2856 22.2633 55.6194 22.5094 55.8656C22.7556 56.1117 23.0894 56.25 23.4375 56.25H35.25Z" fill="#FAF4ED"/>
</g>
<defs>
<clipPath id="clip0_2179_1241">
<rect width="42" height="42" fill="white" transform="translate(16.875 16.875)"/>
</clipPath>
</defs>
</svg>
