<svg width="77" height="77" viewBox="0 0 77 77" fill="none" xmlns="http://www.w3.org/2000/svg">
<rect x="0.5" y="0.625" width="75.75" height="75.75" rx="15" fill="#FAF4ED"/>
<g clip-path="url(#clip0_2071_1183)">
<path fill-rule="evenodd" clip-rule="evenodd" d="M25.25 24.0625C25.25 22.322 25.9414 20.6528 27.1721 19.4221C28.4028 18.1914 30.072 17.5 31.8125 17.5C33.553 17.5 35.2222 18.1914 36.4529 19.4221C37.6836 20.6528 38.375 22.322 38.375 24.0625C38.375 22.322 39.0664 20.6528 40.2971 19.4221C41.5278 18.1914 43.197 17.5 44.9375 17.5C46.678 17.5 48.3472 18.1914 49.5779 19.4221C50.8086 20.6528 51.5 22.322 51.5 24.0625V24.0782C51.5 24.262 51.5 24.787 51.4002 25.375H56.75C57.4462 25.375 58.1139 25.6516 58.6062 26.1438C59.0984 26.6361 59.375 27.3038 59.375 28V33.25C59.375 33.9462 59.0984 34.6139 58.6062 35.1062C58.1139 35.5984 57.4462 35.875 56.75 35.875V55.5625C56.75 56.6068 56.3352 57.6083 55.5967 58.3467C54.8583 59.0852 53.8568 59.5 52.8125 59.5H23.9375C22.8932 59.5 21.8917 59.0852 21.1533 58.3467C20.4148 57.6083 20 56.6068 20 55.5625V35.875C19.3038 35.875 18.6361 35.5984 18.1438 35.1062C17.6516 34.6139 17.375 33.9462 17.375 33.25V28C17.375 27.3038 17.6516 26.6361 18.1438 26.1438C18.6361 25.6516 19.3038 25.375 20 25.375H25.3498C25.2804 24.9463 25.2471 24.5125 25.25 24.0782V24.0625ZM28.0535 25.375H35.75V24.0625C35.75 23.5454 35.6482 23.0334 35.4503 22.5557C35.2524 22.078 34.9624 21.6439 34.5967 21.2783C34.2311 20.9126 33.797 20.6226 33.3193 20.4247C32.8416 20.2268 32.3296 20.125 31.8125 20.125C31.2954 20.125 30.7834 20.2268 30.3057 20.4247C29.828 20.6226 29.3939 20.9126 29.0283 21.2783C28.6626 21.6439 28.3726 22.078 28.1747 22.5557C27.9768 23.0334 27.875 23.5454 27.875 24.0625C27.875 24.2856 27.8802 24.7818 27.9931 25.1913C28.0089 25.2538 28.0291 25.3152 28.0535 25.375ZM41 25.375H48.6965C48.7206 25.3151 48.7408 25.2538 48.7569 25.1913C48.8697 24.7818 48.875 24.2856 48.875 24.0625C48.875 23.0182 48.4602 22.0167 47.7217 21.2783C46.9833 20.5398 45.9818 20.125 44.9375 20.125C43.8932 20.125 42.8917 20.5398 42.1533 21.2783C41.4148 22.0167 41 23.0182 41 24.0625V25.375ZM20 28V33.25H35.75V28H20ZM41 28V33.25H56.75V28H41ZM54.125 35.875H41V56.875H52.8125C53.1606 56.875 53.4944 56.7367 53.7406 56.4906C53.9867 56.2444 54.125 55.9106 54.125 55.5625V35.875ZM35.75 56.875V35.875H22.625V55.5625C22.625 55.9106 22.7633 56.2444 23.0094 56.4906C23.2556 56.7367 23.5894 56.875 23.9375 56.875H35.75Z" fill="#56C172"/>
</g>
<defs>
<clipPath id="clip0_2071_1183">
<rect width="42" height="42" fill="white" transform="translate(17.375 17.5)"/>
</clipPath>
</defs>
</svg>
