<svg width="77" height="77" viewBox="0 0 77 77" fill="none" xmlns="http://www.w3.org/2000/svg">
<rect x="0.5" y="0.625" width="75.75" height="75.75" rx="15" fill="#FAF4ED"/>
<g clip-path="url(#clip0_2070_2305)">
<path fill-rule="evenodd" clip-rule="evenodd" d="M17.375 38.5C17.375 37.1076 17.9281 35.7723 18.9127 34.7877C19.8973 33.8031 21.2326 33.25 22.625 33.25H42.3125C43.5859 33.2499 44.8159 33.7125 45.7735 34.5518C46.7311 35.3911 47.3511 36.5499 47.5179 37.8122L55.6816 34.1845C56.0812 34.0065 56.519 33.9311 56.9551 33.9653C57.3912 33.9995 57.8119 34.1421 58.1789 34.3802C58.5459 34.6184 58.8475 34.9444 59.0564 35.3288C59.2653 35.7132 59.3748 36.1437 59.375 36.5811V56.1689C59.3746 56.606 59.2651 57.0361 59.0563 57.4202C58.8476 57.8042 58.5462 58.1301 58.1796 58.3681C57.813 58.6062 57.3927 58.7489 56.957 58.7834C56.5212 58.8179 56.0837 58.743 55.6842 58.5655L47.5179 54.9377C47.3511 56.2001 46.7311 57.3589 45.7735 58.1982C44.8159 59.0375 43.5859 59.5002 42.3125 59.5H22.625C21.2326 59.5 19.8973 58.9469 18.9127 57.9623C17.9281 56.9777 17.375 55.6424 17.375 54.25V38.5ZM47.5625 52.0844L56.75 56.1689V36.5811L47.5625 40.6656V52.0844ZM22.625 35.875C21.9288 35.875 21.2611 36.1516 20.7688 36.6438C20.2766 37.1361 20 37.8038 20 38.5V54.25C20 54.9462 20.2766 55.6139 20.7688 56.1062C21.2611 56.5984 21.9288 56.875 22.625 56.875H42.3125C43.0087 56.875 43.6764 56.5984 44.1687 56.1062C44.6609 55.6139 44.9375 54.9462 44.9375 54.25V38.5C44.9375 37.8038 44.6609 37.1361 44.1687 36.6438C43.6764 36.1516 43.0087 35.875 42.3125 35.875H22.625Z" fill="#56C172"/>
<path fill-rule="evenodd" clip-rule="evenodd" d="M25.25 30.625C26.6424 30.625 27.9777 30.0719 28.9623 29.0873C29.9469 28.1027 30.5 26.7674 30.5 25.375C30.5 23.9826 29.9469 22.6473 28.9623 21.6627C27.9777 20.6781 26.6424 20.125 25.25 20.125C23.8576 20.125 22.5223 20.6781 21.5377 21.6627C20.5531 22.6473 20 23.9826 20 25.375C20 26.7674 20.5531 28.1027 21.5377 29.0873C22.5223 30.0719 23.8576 30.625 25.25 30.625ZM25.25 33.25C27.3386 33.25 29.3416 32.4203 30.8185 30.9435C32.2953 29.4666 33.125 27.4636 33.125 25.375C33.125 23.2864 32.2953 21.2834 30.8185 19.8065C29.3416 18.3297 27.3386 17.5 25.25 17.5C23.1614 17.5 21.1584 18.3297 19.6815 19.8065C18.2047 21.2834 17.375 23.2864 17.375 25.375C17.375 27.4636 18.2047 29.4666 19.6815 30.9435C21.1584 32.4203 23.1614 33.25 25.25 33.25Z" fill="#56C172"/>
<path fill-rule="evenodd" clip-rule="evenodd" d="M41 30.625C42.3924 30.625 43.7277 30.0719 44.7123 29.0873C45.6969 28.1027 46.25 26.7674 46.25 25.375C46.25 23.9826 45.6969 22.6473 44.7123 21.6627C43.7277 20.6781 42.3924 20.125 41 20.125C39.6076 20.125 38.2723 20.6781 37.2877 21.6627C36.3031 22.6473 35.75 23.9826 35.75 25.375C35.75 26.7674 36.3031 28.1027 37.2877 29.0873C38.2723 30.0719 39.6076 30.625 41 30.625ZM41 33.25C43.0886 33.25 45.0916 32.4203 46.5685 30.9435C48.0453 29.4666 48.875 27.4636 48.875 25.375C48.875 23.2864 48.0453 21.2834 46.5685 19.8065C45.0916 18.3297 43.0886 17.5 41 17.5C38.9114 17.5 36.9084 18.3297 35.4315 19.8065C33.9547 21.2834 33.125 23.2864 33.125 25.375C33.125 27.4636 33.9547 29.4666 35.4315 30.9435C36.9084 32.4203 38.9114 33.25 41 33.25Z" fill="#56C172"/>
</g>
<defs>
<clipPath id="clip0_2070_2305">
<rect width="42" height="42" fill="white" transform="translate(17.375 17.5)"/>
</clipPath>
</defs>
</svg>
