<svg width="76" height="76" viewBox="0 0 76 76" fill="none" xmlns="http://www.w3.org/2000/svg">
<rect width="75.75" height="75.75" rx="15" fill="#56C172"/>
<g clip-path="url(#clip0_2179_1233)">
<path fill-rule="evenodd" clip-rule="evenodd" d="M38.3632 19.7963C38.0499 19.6707 37.7001 19.6707 37.3868 19.7963L21.7207 26.0622L28.0312 28.5848L44.1855 22.1247L38.3632 19.7963ZM47.7188 23.5396L31.5645 29.9997L37.875 32.5223L54.0293 26.0622L47.7188 23.5396V23.5396ZM56.25 28.0021L39.1875 34.8271V55.6223L56.25 48.7973V28.0047V28.0021ZM36.5625 55.625V34.8245L19.5 28.0021V48.8L36.5625 55.625V55.625ZM36.4129 17.3577C37.3515 16.9823 38.3985 16.9823 39.3371 17.3577L58.0507 24.8442C58.2941 24.9417 58.5026 25.1098 58.6495 25.3269C58.7964 25.544 58.8749 25.8001 58.875 26.0622V48.8C58.8747 49.3245 58.7172 49.8369 58.4229 50.2711C58.1286 50.7053 57.711 51.0414 57.2239 51.236L38.3632 58.7802C38.0499 58.9058 37.7001 58.9058 37.3868 58.7802L18.5287 51.236C18.0412 51.0418 17.623 50.7059 17.3282 50.2716C17.0334 49.8374 16.8755 49.3248 16.875 48.8V26.0622C16.8751 25.8001 16.9536 25.544 17.1005 25.3269C17.2474 25.1098 17.4559 24.9417 17.6993 24.8442L36.4129 17.3577Z" fill="#FAF4ED"/>
</g>
<defs>
<clipPath id="clip0_2179_1233">
<rect width="42" height="42" fill="white" transform="translate(16.875 16.875)"/>
</clipPath>
</defs>
</svg>
