<svg width="76" height="76" viewBox="0 0 76 76" fill="none" xmlns="http://www.w3.org/2000/svg">
<rect width="75.75" height="75.75" rx="15" fill="#56C172"/>
<g clip-path="url(#clip0_2179_1263)">
<path fill-rule="evenodd" clip-rule="evenodd" d="M16.875 37.875C16.875 36.4826 17.4281 35.1473 18.4127 34.1627C19.3973 33.1781 20.7326 32.625 22.125 32.625H41.8125C43.0859 32.6249 44.3159 33.0875 45.2735 33.9268C46.2311 34.7661 46.8511 35.9249 47.0179 37.1872L55.1816 33.5595C55.5812 33.3815 56.019 33.3061 56.4551 33.3403C56.8912 33.3745 57.3119 33.5171 57.6789 33.7552C58.0459 33.9934 58.3475 34.3194 58.5564 34.7038C58.7653 35.0882 58.8748 35.5187 58.875 35.9561V55.5439C58.8746 55.981 58.7651 56.4111 58.5563 56.7952C58.3476 57.1792 58.0462 57.5051 57.6796 57.7431C57.313 57.9812 56.8927 58.1239 56.457 58.1584C56.0212 58.1929 55.5837 58.118 55.1842 57.9405L47.0179 54.3128C46.8511 55.5751 46.2311 56.7339 45.2735 57.5732C44.3159 58.4125 43.0859 58.8751 41.8125 58.875H22.125C20.7326 58.875 19.3973 58.3219 18.4127 57.3373C17.4281 56.3527 16.875 55.0174 16.875 53.625V37.875ZM47.0625 51.4594L56.25 55.5439V35.9561L47.0625 40.0406V51.4594V51.4594ZM22.125 35.25C21.4288 35.25 20.7611 35.5266 20.2688 36.0188C19.7766 36.5111 19.5 37.1788 19.5 37.875V53.625C19.5 54.3212 19.7766 54.9889 20.2688 55.4812C20.7611 55.9734 21.4288 56.25 22.125 56.25H41.8125C42.5087 56.25 43.1764 55.9734 43.6687 55.4812C44.1609 54.9889 44.4375 54.3212 44.4375 53.625V37.875C44.4375 37.1788 44.1609 36.5111 43.6687 36.0188C43.1764 35.5266 42.5087 35.25 41.8125 35.25H22.125Z" fill="#FAF4ED"/>
<path fill-rule="evenodd" clip-rule="evenodd" d="M24.75 30C26.1424 30 27.4777 29.4469 28.4623 28.4623C29.4469 27.4777 30 26.1424 30 24.75C30 23.3576 29.4469 22.0223 28.4623 21.0377C27.4777 20.0531 26.1424 19.5 24.75 19.5C23.3576 19.5 22.0223 20.0531 21.0377 21.0377C20.0531 22.0223 19.5 23.3576 19.5 24.75C19.5 26.1424 20.0531 27.4777 21.0377 28.4623C22.0223 29.4469 23.3576 30 24.75 30V30ZM24.75 32.625C26.8386 32.625 28.8416 31.7953 30.3185 30.3185C31.7953 28.8416 32.625 26.8386 32.625 24.75C32.625 22.6614 31.7953 20.6584 30.3185 19.1815C28.8416 17.7047 26.8386 16.875 24.75 16.875C22.6614 16.875 20.6584 17.7047 19.1815 19.1815C17.7047 20.6584 16.875 22.6614 16.875 24.75C16.875 26.8386 17.7047 28.8416 19.1815 30.3185C20.6584 31.7953 22.6614 32.625 24.75 32.625V32.625Z" fill="#FAF4ED"/>
<path fill-rule="evenodd" clip-rule="evenodd" d="M40.5 30C41.8924 30 43.2277 29.4469 44.2123 28.4623C45.1969 27.4777 45.75 26.1424 45.75 24.75C45.75 23.3576 45.1969 22.0223 44.2123 21.0377C43.2277 20.0531 41.8924 19.5 40.5 19.5C39.1076 19.5 37.7723 20.0531 36.7877 21.0377C35.8031 22.0223 35.25 23.3576 35.25 24.75C35.25 26.1424 35.8031 27.4777 36.7877 28.4623C37.7723 29.4469 39.1076 30 40.5 30ZM40.5 32.625C42.5886 32.625 44.5916 31.7953 46.0685 30.3185C47.5453 28.8416 48.375 26.8386 48.375 24.75C48.375 22.6614 47.5453 20.6584 46.0685 19.1815C44.5916 17.7047 42.5886 16.875 40.5 16.875C38.4114 16.875 36.4084 17.7047 34.9315 19.1815C33.4547 20.6584 32.625 22.6614 32.625 24.75C32.625 26.8386 33.4547 28.8416 34.9315 30.3185C36.4084 31.7953 38.4114 32.625 40.5 32.625V32.625Z" fill="#FAF4ED"/>
</g>
<defs>
<clipPath id="clip0_2179_1263">
<rect width="42" height="42" fill="white" transform="translate(16.875 16.875)"/>
</clipPath>
</defs>
</svg>
