<svg width="77" height="76" viewBox="0 0 77 76" fill="none" xmlns="http://www.w3.org/2000/svg">
<rect x="0.5" y="0.125" width="75.75" height="75.75" rx="15" fill="#FAF4ED"/>
<g clip-path="url(#clip0_2070_2323)">
<path fill-rule="evenodd" clip-rule="evenodd" d="M38.8632 19.9213C38.5499 19.7957 38.2001 19.7957 37.8868 19.9213L22.2207 26.1872L28.5312 28.7098L44.6855 22.2497L38.8632 19.9213ZM48.2188 23.6646L32.0645 30.1247L38.375 32.6473L54.5293 26.1872L48.2188 23.6646V23.6646ZM56.75 28.1271L39.6875 34.9521V55.7473L56.75 48.9223V28.1297V28.1271ZM37.0625 55.75V34.9495L20 28.1271V48.925L37.0625 55.75V55.75ZM36.9129 17.4827C37.8515 17.1073 38.8985 17.1073 39.8371 17.4827L58.5507 24.9692C58.7941 25.0667 59.0026 25.2348 59.1495 25.4519C59.2964 25.669 59.3749 25.9251 59.375 26.1872V48.925C59.3747 49.4495 59.2172 49.9619 58.9229 50.3961C58.6286 50.8303 58.211 51.1664 57.7239 51.361L38.8632 58.9052C38.5499 59.0308 38.2001 59.0308 37.8868 58.9052L19.0287 51.361C18.5412 51.1668 18.123 50.8309 17.8282 50.3966C17.5334 49.9624 17.3755 49.4498 17.375 48.925V26.1872C17.3751 25.9251 17.4536 25.669 17.6005 25.4519C17.7474 25.2348 17.9559 25.0667 18.1993 24.9692L36.9129 17.4827Z" fill="#56C172"/>
</g>
<defs>
<clipPath id="clip0_2070_2323">
<rect width="42" height="42" fill="white" transform="translate(17.375 17)"/>
</clipPath>
</defs>
</svg>
