<svg width="77" height="75" viewBox="0 0 77 75" fill="none" xmlns="http://www.w3.org/2000/svg">
<rect x="0.5" y="0.125" width="75.75" height="74.75" rx="15" fill="#FAF4ED"/>
<g clip-path="url(#clip0_2070_2287)">
<path fill-rule="evenodd" clip-rule="evenodd" d="M20 24.247V49.6747C22.4097 48.7778 25.5309 47.9014 28.6284 47.599C31.5001 47.3146 34.6081 47.4991 37.0625 48.8598V23.8857C35.3458 22.1201 32.3848 21.6153 28.8935 21.9587C25.6543 22.2764 22.3231 23.2989 20 24.247ZM39.6875 23.8857V48.8598C42.1419 47.5017 45.2525 47.3146 48.1216 47.5965C51.2191 47.904 54.3429 48.7778 56.75 49.6747V24.247C54.4269 23.2989 51.0958 22.2764 47.8565 21.9587C44.3653 21.6153 41.4042 22.1201 39.6875 23.8857ZM38.375 21.5692C35.7894 19.3987 32.0409 19.0759 28.6284 19.409C24.6541 19.801 20.6431 21.131 18.1441 22.2405C17.9148 22.3423 17.7204 22.5064 17.584 22.7132C17.4476 22.9199 17.3751 23.1606 17.375 23.4065V51.594C17.3751 51.8084 17.4302 52.0193 17.5354 52.2075C17.6406 52.3956 17.7925 52.555 17.9772 52.671C18.1619 52.7871 18.3734 52.856 18.5924 52.8715C18.8115 52.887 19.031 52.8487 19.2309 52.7599C21.5461 51.7349 25.2763 50.5024 28.8909 50.1462C32.5895 49.7823 35.6896 50.3691 37.3513 52.3935C37.4742 52.5431 37.6301 52.6639 37.8073 52.7469C37.9845 52.8299 38.1785 52.873 38.375 52.873C38.5715 52.873 38.7655 52.8299 38.9427 52.7469C39.1199 52.6639 39.2758 52.5431 39.3988 52.3935C41.0604 50.3691 44.1605 49.7823 47.8565 50.1462C51.4738 50.5024 55.2065 51.7349 57.5191 52.7599C57.719 52.8487 57.9385 52.887 58.1576 52.8715C58.3766 52.856 58.5881 52.7871 58.7728 52.671C58.9575 52.555 59.1094 52.3956 59.2146 52.2075C59.3198 52.0193 59.3749 51.8084 59.375 51.594V23.4065C59.3749 23.1606 59.3024 22.9199 59.166 22.7132C59.0296 22.5064 58.8352 22.3423 58.6059 22.2405C56.1069 21.131 52.0959 19.801 48.1216 19.409C44.7091 19.0733 40.9606 19.3987 38.375 21.5692Z" fill="#56C172"/>
</g>
<defs>
<clipPath id="clip0_2070_2287">
<rect width="42" height="41" fill="white" transform="translate(17.375 17)"/>
</clipPath>
</defs>
</svg>
